<svg width="304" height="137" viewBox="0 0 304 137" fill="none" xmlns="http://www.w3.org/2000/svg">
<path d="M26.596 3.2H30.586C31.622 3.2 32.5367 3.41 33.33 3.83C34.1233 4.24067 34.7393 4.81933 35.178 5.566C35.6167 6.30333 35.836 7.148 35.836 8.1C35.836 9.052 35.6167 9.90133 35.178 10.648C34.7393 11.3853 34.1233 11.964 33.33 12.384C32.5367 12.7947 31.622 13 30.586 13H26.596V3.2ZM30.53 12.104C31.3887 12.104 32.14 11.936 32.784 11.6C33.428 11.2547 33.9273 10.7833 34.282 10.186C34.6367 9.57933 34.814 8.884 34.814 8.1C34.814 7.316 34.6367 6.62533 34.282 6.028C33.9273 5.42133 33.428 4.95 32.784 4.614C32.14 4.26867 31.3887 4.096 30.53 4.096H27.632V12.104H30.53ZM41.7184 13.084C40.7477 13.084 39.8704 12.8693 39.0864 12.44C38.3117 12.0107 37.7004 11.418 37.2524 10.662C36.8137 9.89667 36.5944 9.04267 36.5944 8.1C36.5944 7.15733 36.8137 6.308 37.2524 5.552C37.7004 4.78667 38.3164 4.18933 39.1004 3.76C39.8844 3.33067 40.7617 3.116 41.7324 3.116C42.4604 3.116 43.1324 3.23733 43.7484 3.48C44.3644 3.72267 44.8871 4.07733 45.3164 4.544L44.6584 5.202C43.8931 4.42733 42.9271 4.04 41.7604 4.04C40.9857 4.04 40.2811 4.21733 39.6464 4.572C39.0117 4.92667 38.5124 5.412 38.1484 6.028C37.7937 6.644 37.6164 7.33467 37.6164 8.1C37.6164 8.86533 37.7937 9.556 38.1484 10.172C38.5124 10.788 39.0117 11.2733 39.6464 11.628C40.2811 11.9827 40.9857 12.16 41.7604 12.16C42.9364 12.16 43.9024 11.768 44.6584 10.984L45.3164 11.642C44.8871 12.1087 44.3597 12.468 43.7344 12.72C43.1184 12.9627 42.4464 13.084 41.7184 13.084ZM50.825 4.096V7.946H55.893V8.842H50.825V13H49.789V3.2H56.509V4.096H50.825ZM60.0136 5.58C60.9749 5.58 61.7122 5.82267 62.2256 6.308C62.7389 6.784 62.9956 7.49333 62.9956 8.436V13H62.0436V11.852C61.8196 12.2347 61.4882 12.5333 61.0496 12.748C60.6202 12.9627 60.1069 13.07 59.5096 13.07C58.6882 13.07 58.0349 12.874 57.5496 12.482C57.0642 12.09 56.8216 11.572 56.8216 10.928C56.8216 10.3027 57.0456 9.79867 57.4936 9.416C57.9509 9.03333 58.6742 8.842 59.6636 8.842H62.0016V8.394C62.0016 7.75933 61.8242 7.27867 61.4696 6.952C61.1149 6.616 60.5969 6.448 59.9156 6.448C59.4489 6.448 59.0009 6.52733 58.5716 6.686C58.1422 6.83533 57.7736 7.04533 57.4656 7.316L57.0176 6.574C57.3909 6.25667 57.8389 6.014 58.3616 5.846C58.8842 5.66867 59.4349 5.58 60.0136 5.58ZM59.6636 12.286C60.2236 12.286 60.7042 12.16 61.1056 11.908C61.5069 11.6467 61.8056 11.2733 62.0016 10.788V9.584H59.6916C58.4316 9.584 57.8016 10.0227 57.8016 10.9C57.8016 11.3293 57.9649 11.67 58.2916 11.922C58.6182 12.1647 59.0756 12.286 59.6636 12.286ZM74.1794 5.58C75.1034 5.58 75.8267 5.846 76.3494 6.378C76.8814 6.91 77.1474 7.694 77.1474 8.73V13H76.1534V8.828C76.1534 8.06267 75.9667 7.47933 75.5934 7.078C75.2294 6.67667 74.7114 6.476 74.0394 6.476C73.274 6.476 72.672 6.714 72.2334 7.19C71.7947 7.65667 71.5754 8.30533 71.5754 9.136V13H70.5814V8.828C70.5814 8.06267 70.3947 7.47933 70.0214 7.078C69.6574 6.67667 69.1347 6.476 68.4534 6.476C67.6974 6.476 67.0954 6.714 66.6474 7.19C66.2087 7.65667 65.9894 8.30533 65.9894 9.136V13H64.9954V5.636H65.9474V6.98C66.2087 6.532 66.5727 6.18667 67.0394 5.944C67.506 5.70133 68.0427 5.58 68.6494 5.58C69.2654 5.58 69.7974 5.71067 70.2454 5.972C70.7027 6.23333 71.0434 6.62067 71.2674 7.134C71.538 6.64867 71.9254 6.27067 72.4294 6C72.9427 5.72 73.526 5.58 74.1794 5.58ZM79.143 5.636H80.137V13H79.143V5.636ZM80.655 2.752H81.985L79.717 4.488H78.737L80.655 2.752ZM82.2028 2.612H83.1968V13H82.2028V2.612ZM85.2626 5.636H86.2566V13H85.2626V5.636ZM85.7666 4.026C85.5612 4.026 85.3886 3.956 85.2486 3.816C85.1086 3.676 85.0386 3.508 85.0386 3.312C85.0386 3.12533 85.1086 2.962 85.2486 2.822C85.3886 2.682 85.5612 2.612 85.7666 2.612C85.9719 2.612 86.1446 2.682 86.2846 2.822C86.4246 2.95267 86.4946 3.11133 86.4946 3.298C86.4946 3.50333 86.4246 3.676 86.2846 3.816C86.1446 3.956 85.9719 4.026 85.7666 4.026ZM90.8983 5.58C91.8597 5.58 92.597 5.82267 93.1103 6.308C93.6237 6.784 93.8803 7.49333 93.8803 8.436V13H92.9283V11.852C92.7043 12.2347 92.373 12.5333 91.9343 12.748C91.505 12.9627 90.9917 13.07 90.3943 13.07C89.573 13.07 88.9197 12.874 88.4343 12.482C87.949 12.09 87.7063 11.572 87.7063 10.928C87.7063 10.3027 87.9303 9.79867 88.3783 9.416C88.8357 9.03333 89.559 8.842 90.5483 8.842H92.8863V8.394C92.8863 7.75933 92.709 7.27867 92.3543 6.952C91.9997 6.616 91.4817 6.448 90.8003 6.448C90.3337 6.448 89.8857 6.52733 89.4563 6.686C89.027 6.83533 88.6583 7.04533 88.3503 7.316L87.9023 6.574C88.2757 6.25667 88.7237 6.014 89.2463 5.846C89.769 5.66867 90.3197 5.58 90.8983 5.58ZM90.5483 12.286C91.1083 12.286 91.589 12.16 91.9903 11.908C92.3917 11.6467 92.6903 11.2733 92.8863 10.788V9.584H90.5763C89.3163 9.584 88.6863 10.0227 88.6863 10.9C88.6863 11.3293 88.8497 11.67 89.1763 11.922C89.503 12.1647 89.9603 12.286 90.5483 12.286ZM98.2982 8.772H101.966V9.64H98.2982V8.772ZM106.664 3.2H107.7V13H106.664V3.2ZM113.731 5.58C114.655 5.58 115.387 5.85067 115.929 6.392C116.479 6.924 116.755 7.70333 116.755 8.73V13H115.761V8.828C115.761 8.06267 115.569 7.47933 115.187 7.078C114.804 6.67667 114.258 6.476 113.549 6.476C112.755 6.476 112.125 6.714 111.659 7.19C111.201 7.65667 110.973 8.30533 110.973 9.136V13H109.979V5.636H110.931V6.994C111.201 6.546 111.575 6.20067 112.051 5.958C112.536 5.706 113.096 5.58 113.731 5.58ZM122.631 12.552C122.445 12.72 122.211 12.8507 121.931 12.944C121.661 13.028 121.376 13.07 121.077 13.07C120.387 13.07 119.855 12.8833 119.481 12.51C119.108 12.1367 118.921 11.6093 118.921 10.928V6.476H117.605V5.636H118.921V4.026H119.915V5.636H122.155V6.476H119.915V10.872C119.915 11.3107 120.023 11.6467 120.237 11.88C120.461 12.104 120.779 12.216 121.189 12.216C121.395 12.216 121.591 12.1833 121.777 12.118C121.973 12.0527 122.141 11.9593 122.281 11.838L122.631 12.552ZM124.693 7.078C124.926 6.58333 125.271 6.21 125.729 5.958C126.195 5.706 126.769 5.58 127.451 5.58V6.546L127.213 6.532C126.438 6.532 125.831 6.77 125.393 7.246C124.954 7.722 124.735 8.38933 124.735 9.248V13H123.741V5.636H124.693V7.078ZM131.492 13.07C130.783 13.07 130.143 12.9113 129.574 12.594C129.005 12.2673 128.557 11.8193 128.23 11.25C127.903 10.6807 127.74 10.0367 127.74 9.318C127.74 8.59933 127.903 7.95533 128.23 7.386C128.557 6.81667 129.005 6.37333 129.574 6.056C130.143 5.73867 130.783 5.58 131.492 5.58C132.201 5.58 132.841 5.73867 133.41 6.056C133.979 6.37333 134.423 6.81667 134.74 7.386C135.067 7.95533 135.23 8.59933 135.23 9.318C135.23 10.0367 135.067 10.6807 134.74 11.25C134.423 11.8193 133.979 12.2673 133.41 12.594C132.841 12.9113 132.201 13.07 131.492 13.07ZM131.492 12.188C132.015 12.188 132.481 12.0713 132.892 11.838C133.312 11.5953 133.639 11.2547 133.872 10.816C134.105 10.3773 134.222 9.878 134.222 9.318C134.222 8.758 134.105 8.25867 133.872 7.82C133.639 7.38133 133.312 7.04533 132.892 6.812C132.481 6.56933 132.015 6.448 131.492 6.448C130.969 6.448 130.498 6.56933 130.078 6.812C129.667 7.04533 129.341 7.38133 129.098 7.82C128.865 8.25867 128.748 8.758 128.748 9.318C128.748 9.878 128.865 10.3773 129.098 10.816C129.341 11.2547 129.667 11.5953 130.078 11.838C130.498 12.0713 130.969 12.188 131.492 12.188ZM143.279 2.612V13H142.327V11.544C142.029 12.0387 141.632 12.4167 141.137 12.678C140.652 12.9393 140.101 13.07 139.485 13.07C138.795 13.07 138.169 12.9113 137.609 12.594C137.049 12.2767 136.611 11.8333 136.293 11.264C135.976 10.6947 135.817 10.046 135.817 9.318C135.817 8.59 135.976 7.94133 136.293 7.372C136.611 6.80267 137.049 6.364 137.609 6.056C138.169 5.73867 138.795 5.58 139.485 5.58C140.083 5.58 140.619 5.706 141.095 5.958C141.581 6.20067 141.977 6.56 142.285 7.036V2.612H143.279ZM139.569 12.188C140.083 12.188 140.545 12.0713 140.955 11.838C141.375 11.5953 141.702 11.2547 141.935 10.816C142.178 10.3773 142.299 9.878 142.299 9.318C142.299 8.758 142.178 8.25867 141.935 7.82C141.702 7.38133 141.375 7.04533 140.955 6.812C140.545 6.56933 140.083 6.448 139.569 6.448C139.047 6.448 138.575 6.56933 138.155 6.812C137.745 7.04533 137.418 7.38133 137.175 7.82C136.942 8.25867 136.825 8.758 136.825 9.318C136.825 9.878 136.942 10.3773 137.175 10.816C137.418 11.2547 137.745 11.5953 138.155 11.838C138.575 12.0713 139.047 12.188 139.569 12.188ZM151.984 5.636V13H151.032V11.656C150.77 12.104 150.411 12.454 149.954 12.706C149.496 12.9487 148.974 13.07 148.386 13.07C147.424 13.07 146.664 12.804 146.104 12.272C145.553 11.7307 145.278 10.942 145.278 9.906V5.636H146.272V9.808C146.272 10.5827 146.463 11.1707 146.846 11.572C147.228 11.9733 147.774 12.174 148.484 12.174C149.258 12.174 149.87 11.9407 150.318 11.474C150.766 10.998 150.99 10.34 150.99 9.5V5.636H151.984ZM157.12 13.07C156.392 13.07 155.738 12.9113 155.16 12.594C154.59 12.2767 154.142 11.8333 153.816 11.264C153.489 10.6853 153.326 10.0367 153.326 9.318C153.326 8.59933 153.489 7.95533 153.816 7.386C154.142 6.81667 154.59 6.37333 155.16 6.056C155.738 5.73867 156.392 5.58 157.12 5.58C157.754 5.58 158.319 5.706 158.814 5.958C159.318 6.20067 159.714 6.56 160.004 7.036L159.262 7.54C159.019 7.176 158.711 6.90533 158.338 6.728C157.964 6.54133 157.558 6.448 157.12 6.448C156.588 6.448 156.107 6.56933 155.678 6.812C155.258 7.04533 154.926 7.38133 154.684 7.82C154.45 8.25867 154.334 8.758 154.334 9.318C154.334 9.88733 154.45 10.3913 154.684 10.83C154.926 11.2593 155.258 11.5953 155.678 11.838C156.107 12.0713 156.588 12.188 157.12 12.188C157.558 12.188 157.964 12.0993 158.338 11.922C158.711 11.7447 159.019 11.474 159.262 11.11L160.004 11.614C159.714 12.09 159.318 12.454 158.814 12.706C158.31 12.9487 157.745 13.07 157.12 13.07ZM156.532 16.08C156.074 16.08 155.682 15.9727 155.356 15.758L155.594 15.226C155.864 15.4033 156.172 15.492 156.518 15.492C156.798 15.492 157.012 15.436 157.162 15.324C157.311 15.212 157.386 15.0487 157.386 14.834C157.386 14.638 157.311 14.4793 157.162 14.358C157.022 14.246 156.807 14.19 156.518 14.19H156.196L156.532 12.916H157.134L156.924 13.728C157.306 13.7653 157.6 13.882 157.806 14.078C158.011 14.2833 158.114 14.5447 158.114 14.862C158.114 15.2353 157.969 15.5293 157.68 15.744C157.39 15.968 157.008 16.08 156.532 16.08ZM163.832 5.58C164.794 5.58 165.531 5.82267 166.044 6.308C166.558 6.784 166.814 7.49333 166.814 8.436V13H165.862V11.852C165.638 12.2347 165.307 12.5333 164.868 12.748C164.439 12.9627 163.926 13.07 163.328 13.07C162.507 13.07 161.854 12.874 161.368 12.482C160.883 12.09 160.64 11.572 160.64 10.928C160.64 10.3027 160.864 9.79867 161.312 9.416C161.77 9.03333 162.493 8.842 163.482 8.842H165.82V8.394C165.82 7.75933 165.643 7.27867 165.288 6.952C164.934 6.616 164.416 6.448 163.734 6.448C163.268 6.448 162.82 6.52733 162.39 6.686C161.961 6.83533 161.592 7.04533 161.284 7.316L160.836 6.574C161.21 6.25667 161.658 6.014 162.18 5.846C162.703 5.66867 163.254 5.58 163.832 5.58ZM163.482 12.286C164.042 12.286 164.523 12.16 164.924 11.908C165.326 11.6467 165.624 11.2733 165.82 10.788V9.584H163.51C162.25 9.584 161.62 10.0227 161.62 10.9C161.62 11.3293 161.784 11.67 162.11 11.922C162.437 12.1647 162.894 12.286 163.482 12.286ZM164.812 4.404C164.598 4.404 164.406 4.35733 164.238 4.264C164.07 4.16133 163.888 4.02133 163.692 3.844C163.524 3.704 163.389 3.606 163.286 3.55C163.193 3.48467 163.09 3.452 162.978 3.452C162.764 3.452 162.591 3.53133 162.46 3.69C162.33 3.84867 162.26 4.068 162.25 4.348H161.648C161.667 3.88133 161.788 3.508 162.012 3.228C162.236 2.948 162.535 2.808 162.908 2.808C163.123 2.808 163.31 2.85467 163.468 2.948C163.636 3.04133 163.828 3.18133 164.042 3.368C164.192 3.49867 164.318 3.59667 164.42 3.662C164.523 3.72733 164.63 3.76 164.742 3.76C164.948 3.76 165.116 3.68533 165.246 3.536C165.377 3.37733 165.452 3.16267 165.47 2.892H166.072C166.054 3.34933 165.932 3.718 165.708 3.998C165.484 4.26867 165.186 4.404 164.812 4.404ZM171.851 13.07C171.142 13.07 170.503 12.9113 169.933 12.594C169.364 12.2673 168.916 11.8193 168.589 11.25C168.263 10.6807 168.099 10.0367 168.099 9.318C168.099 8.59933 168.263 7.95533 168.589 7.386C168.916 6.81667 169.364 6.37333 169.933 6.056C170.503 5.73867 171.142 5.58 171.851 5.58C172.561 5.58 173.2 5.73867 173.769 6.056C174.339 6.37333 174.782 6.81667 175.099 7.386C175.426 7.95533 175.589 8.59933 175.589 9.318C175.589 10.0367 175.426 10.6807 175.099 11.25C174.782 11.8193 174.339 12.2673 173.769 12.594C173.2 12.9113 172.561 13.07 171.851 13.07ZM171.851 12.188C172.374 12.188 172.841 12.0713 173.251 11.838C173.671 11.5953 173.998 11.2547 174.231 10.816C174.465 10.3773 174.581 9.878 174.581 9.318C174.581 8.758 174.465 8.25867 174.231 7.82C173.998 7.38133 173.671 7.04533 173.251 6.812C172.841 6.56933 172.374 6.448 171.851 6.448C171.329 6.448 170.857 6.56933 170.437 6.812C170.027 7.04533 169.7 7.38133 169.457 7.82C169.224 8.25867 169.107 8.758 169.107 9.318C169.107 9.878 169.224 10.3773 169.457 10.816C169.7 11.2547 170.027 11.5953 170.437 11.838C170.857 12.0713 171.329 12.188 171.851 12.188Z" fill="black"/>
<path d="M2.89169 8.89033C2.91557 8.80352 2.91557 8.71186 2.89169 8.62505L0.807618 1.05051L14.0083 8.75769L0.807618 16.4649L2.89169 8.89033Z" fill="#C8E4BC" stroke="#4C8E11" stroke-linecap="round" stroke-linejoin="round"/>
<path d="M57.852 37.084C56.8813 37.084 56.004 36.8693 55.22 36.44C54.4453 36.0107 53.834 35.418 53.386 34.662C52.9473 33.8967 52.728 33.0427 52.728 32.1C52.728 31.1573 52.9473 30.308 53.386 29.552C53.834 28.7867 54.45 28.1893 55.234 27.76C56.018 27.3307 56.8953 27.116 57.866 27.116C58.594 27.116 59.266 27.2373 59.882 27.48C60.498 27.7227 61.0207 28.0773 61.45 28.544L60.792 29.202C60.0267 28.4273 59.0607 28.04 57.894 28.04C57.1193 28.04 56.4147 28.2173 55.78 28.572C55.1453 28.9267 54.646 29.412 54.282 30.028C53.9273 30.644 53.75 31.3347 53.75 32.1C53.75 32.8653 53.9273 33.556 54.282 34.172C54.646 34.788 55.1453 35.2733 55.78 35.628C56.4147 35.9827 57.1193 36.16 57.894 36.16C59.07 36.16 60.036 35.768 60.792 34.984L61.45 35.642C61.0207 36.1087 60.4933 36.468 59.868 36.72C59.252 36.9627 58.58 37.084 57.852 37.084ZM65.4304 37.07C64.721 37.07 64.0817 36.9113 63.5124 36.594C62.943 36.2673 62.495 35.8193 62.1684 35.25C61.8417 34.6807 61.6784 34.0367 61.6784 33.318C61.6784 32.5993 61.8417 31.9553 62.1684 31.386C62.495 30.8167 62.943 30.3733 63.5124 30.056C64.0817 29.7387 64.721 29.58 65.4304 29.58C66.1397 29.58 66.779 29.7387 67.3484 30.056C67.9177 30.3733 68.361 30.8167 68.6784 31.386C69.005 31.9553 69.1684 32.5993 69.1684 33.318C69.1684 34.0367 69.005 34.6807 68.6784 35.25C68.361 35.8193 67.9177 36.2673 67.3484 36.594C66.779 36.9113 66.1397 37.07 65.4304 37.07ZM65.4304 36.188C65.953 36.188 66.4197 36.0713 66.8304 35.838C67.2504 35.5953 67.577 35.2547 67.8104 34.816C68.0437 34.3773 68.1604 33.878 68.1604 33.318C68.1604 32.758 68.0437 32.2587 67.8104 31.82C67.577 31.3813 67.2504 31.0453 66.8304 30.812C66.4197 30.5693 65.953 30.448 65.4304 30.448C64.9077 30.448 64.4364 30.5693 64.0164 30.812C63.6057 31.0453 63.279 31.3813 63.0364 31.82C62.803 32.2587 62.6864 32.758 62.6864 33.318C62.6864 33.878 62.803 34.3773 63.0364 34.816C63.279 35.2547 63.6057 35.5953 64.0164 35.838C64.4364 36.0713 64.9077 36.188 65.4304 36.188ZM74.2497 29.58C75.1737 29.58 75.9064 29.8507 76.4477 30.392C76.9984 30.924 77.2737 31.7033 77.2737 32.73V37H76.2797V32.828C76.2797 32.0627 76.0884 31.4793 75.7057 31.078C75.3231 30.6767 74.7771 30.476 74.0677 30.476C73.2744 30.476 72.6444 30.714 72.1777 31.19C71.7204 31.6567 71.4917 32.3053 71.4917 33.136V37H70.4977V29.636H71.4497V30.994C71.7204 30.546 72.0937 30.2007 72.5697 29.958C73.0551 29.706 73.6151 29.58 74.2497 29.58ZM82.3517 37.07C81.6237 37.07 80.9703 36.9113 80.3917 36.594C79.8223 36.2767 79.3743 35.8333 79.0477 35.264C78.721 34.6853 78.5577 34.0367 78.5577 33.318C78.5577 32.5993 78.721 31.9553 79.0477 31.386C79.3743 30.8167 79.8223 30.3733 80.3917 30.056C80.9703 29.7387 81.6237 29.58 82.3517 29.58C82.9863 29.58 83.551 29.706 84.0457 29.958C84.5497 30.2007 84.9463 30.56 85.2357 31.036L84.4937 31.54C84.251 31.176 83.943 30.9053 83.5697 30.728C83.1963 30.5413 82.7903 30.448 82.3517 30.448C81.8197 30.448 81.339 30.5693 80.9097 30.812C80.4897 31.0453 80.1583 31.3813 79.9157 31.82C79.6823 32.2587 79.5657 32.758 79.5657 33.318C79.5657 33.8873 79.6823 34.3913 79.9157 34.83C80.1583 35.2593 80.4897 35.5953 80.9097 35.838C81.339 36.0713 81.8197 36.188 82.3517 36.188C82.7903 36.188 83.1963 36.0993 83.5697 35.922C83.943 35.7447 84.251 35.474 84.4937 35.11L85.2357 35.614C84.9463 36.09 84.5497 36.454 84.0457 36.706C83.5417 36.9487 82.977 37.07 82.3517 37.07ZM92.7773 33.626H86.6173C86.6733 34.3913 86.9673 35.012 87.4993 35.488C88.0313 35.9547 88.7033 36.188 89.5153 36.188C89.9726 36.188 90.3926 36.1087 90.7753 35.95C91.158 35.782 91.4893 35.5393 91.7693 35.222L92.3293 35.866C92.0026 36.258 91.592 36.5567 91.0973 36.762C90.612 36.9673 90.0753 37.07 89.4873 37.07C88.7313 37.07 88.0593 36.9113 87.4713 36.594C86.8926 36.2673 86.44 35.8193 86.1133 35.25C85.7866 34.6807 85.6233 34.0367 85.6233 33.318C85.6233 32.5993 85.7773 31.9553 86.0853 31.386C86.4026 30.8167 86.832 30.3733 87.3733 30.056C87.924 29.7387 88.54 29.58 89.2213 29.58C89.9026 29.58 90.514 29.7387 91.0553 30.056C91.5966 30.3733 92.0213 30.8167 92.3293 31.386C92.6373 31.946 92.7913 32.59 92.7913 33.318L92.7773 33.626ZM89.2213 30.434C88.512 30.434 87.9146 30.6627 87.4293 31.12C86.9533 31.568 86.6826 32.156 86.6173 32.884H91.8393C91.774 32.156 91.4986 31.568 91.0133 31.12C90.5373 30.6627 89.94 30.434 89.2213 30.434ZM94.1145 29.636H95.1085V37H94.1145V29.636ZM94.6185 28.026C94.4132 28.026 94.2405 27.956 94.1005 27.816C93.9605 27.676 93.8905 27.508 93.8905 27.312C93.8905 27.1253 93.9605 26.962 94.1005 26.822C94.2405 26.682 94.4132 26.612 94.6185 26.612C94.8238 26.612 94.9965 26.682 95.1365 26.822C95.2765 26.9527 95.3465 27.1113 95.3465 27.298C95.3465 27.5033 95.2765 27.676 95.1365 27.816C94.9965 27.956 94.8238 28.026 94.6185 28.026ZM101.052 36.552C100.866 36.72 100.632 36.8507 100.352 36.944C100.082 37.028 99.7969 37.07 99.4983 37.07C98.8076 37.07 98.2756 36.8833 97.9023 36.51C97.5289 36.1367 97.3423 35.6093 97.3423 34.928V30.476H96.0263V29.636H97.3423V28.026H98.3363V29.636H100.576V30.476H98.3363V34.872C98.3363 35.3107 98.4436 35.6467 98.6583 35.88C98.8823 36.104 99.1996 36.216 99.6103 36.216C99.8156 36.216 100.012 36.1833 100.198 36.118C100.394 36.0527 100.562 35.9593 100.702 35.838L101.052 36.552ZM104.912 37.07C104.203 37.07 103.563 36.9113 102.994 36.594C102.425 36.2673 101.977 35.8193 101.65 35.25C101.323 34.6807 101.16 34.0367 101.16 33.318C101.16 32.5993 101.323 31.9553 101.65 31.386C101.977 30.8167 102.425 30.3733 102.994 30.056C103.563 29.7387 104.203 29.58 104.912 29.58C105.621 29.58 106.261 29.7387 106.83 30.056C107.399 30.3733 107.843 30.8167 108.16 31.386C108.487 31.9553 108.65 32.5993 108.65 33.318C108.65 34.0367 108.487 34.6807 108.16 35.25C107.843 35.8193 107.399 36.2673 106.83 36.594C106.261 36.9113 105.621 37.07 104.912 37.07ZM104.912 36.188C105.435 36.188 105.901 36.0713 106.312 35.838C106.732 35.5953 107.059 35.2547 107.292 34.816C107.525 34.3773 107.642 33.878 107.642 33.318C107.642 32.758 107.525 32.2587 107.292 31.82C107.059 31.3813 106.732 31.0453 106.312 30.812C105.901 30.5693 105.435 30.448 104.912 30.448C104.389 30.448 103.918 30.5693 103.498 30.812C103.087 31.0453 102.761 31.3813 102.518 31.82C102.285 32.2587 102.168 32.758 102.168 33.318C102.168 33.878 102.285 34.3773 102.518 34.816C102.761 35.2547 103.087 35.5953 103.498 35.838C103.918 36.0713 104.389 36.188 104.912 36.188ZM112.943 29.636H113.937V37H112.943V29.636ZM113.447 28.026C113.242 28.026 113.069 27.956 112.929 27.816C112.789 27.676 112.719 27.508 112.719 27.312C112.719 27.1253 112.789 26.962 112.929 26.822C113.069 26.682 113.242 26.612 113.447 26.612C113.653 26.612 113.825 26.682 113.965 26.822C114.105 26.9527 114.175 27.1113 114.175 27.298C114.175 27.5033 114.105 27.676 113.965 27.816C113.825 27.956 113.653 28.026 113.447 28.026ZM119.755 29.58C120.679 29.58 121.412 29.8507 121.953 30.392C122.504 30.924 122.779 31.7033 122.779 32.73V37H121.785V32.828C121.785 32.0627 121.594 31.4793 121.211 31.078C120.829 30.6767 120.283 30.476 119.573 30.476C118.78 30.476 118.15 30.714 117.683 31.19C117.226 31.6567 116.997 32.3053 116.997 33.136V37H116.003V29.636H116.955V30.994C117.226 30.546 117.599 30.2007 118.075 29.958C118.561 29.706 119.121 29.58 119.755 29.58ZM124.778 29.636H125.772V37H124.778V29.636ZM125.282 28.026C125.076 28.026 124.904 27.956 124.764 27.816C124.624 27.676 124.554 27.508 124.554 27.312C124.554 27.1253 124.624 26.962 124.764 26.822C124.904 26.682 125.076 26.612 125.282 26.612C125.487 26.612 125.66 26.682 125.8 26.822C125.94 26.9527 126.01 27.1113 126.01 27.298C126.01 27.5033 125.94 27.676 125.8 27.816C125.66 27.956 125.487 28.026 125.282 28.026ZM130.89 37.07C130.162 37.07 129.508 36.9113 128.93 36.594C128.36 36.2767 127.912 35.8333 127.586 35.264C127.259 34.6853 127.096 34.0367 127.096 33.318C127.096 32.5993 127.259 31.9553 127.586 31.386C127.912 30.8167 128.36 30.3733 128.93 30.056C129.508 29.7387 130.162 29.58 130.89 29.58C131.524 29.58 132.089 29.706 132.584 29.958C133.088 30.2007 133.484 30.56 133.774 31.036L133.032 31.54C132.789 31.176 132.481 30.9053 132.108 30.728C131.734 30.5413 131.328 30.448 130.89 30.448C130.358 30.448 129.877 30.5693 129.448 30.812C129.028 31.0453 128.696 31.3813 128.454 31.82C128.22 32.2587 128.104 32.758 128.104 33.318C128.104 33.8873 128.22 34.3913 128.454 34.83C128.696 35.2593 129.028 35.5953 129.448 35.838C129.877 36.0713 130.358 36.188 130.89 36.188C131.328 36.188 131.734 36.0993 132.108 35.922C132.481 35.7447 132.789 35.474 133.032 35.11L133.774 35.614C133.484 36.09 133.088 36.454 132.584 36.706C132.08 36.9487 131.515 37.07 130.89 37.07ZM135.026 29.636H136.02V37H135.026V29.636ZM135.53 28.026C135.325 28.026 135.152 27.956 135.012 27.816C134.872 27.676 134.802 27.508 134.802 27.312C134.802 27.1253 134.872 26.962 135.012 26.822C135.152 26.682 135.325 26.612 135.53 26.612C135.736 26.612 135.908 26.682 136.048 26.822C136.188 26.9527 136.258 27.1113 136.258 27.298C136.258 27.5033 136.188 27.676 136.048 27.816C135.908 27.956 135.736 28.026 135.53 28.026ZM140.662 29.58C141.623 29.58 142.361 29.8227 142.874 30.308C143.387 30.784 143.644 31.4933 143.644 32.436V37H142.692V35.852C142.468 36.2347 142.137 36.5333 141.698 36.748C141.269 36.9627 140.755 37.07 140.158 37.07C139.337 37.07 138.683 36.874 138.198 36.482C137.713 36.09 137.47 35.572 137.47 34.928C137.47 34.3027 137.694 33.7987 138.142 33.416C138.599 33.0333 139.323 32.842 140.312 32.842H142.65V32.394C142.65 31.7593 142.473 31.2787 142.118 30.952C141.763 30.616 141.245 30.448 140.564 30.448C140.097 30.448 139.649 30.5273 139.22 30.686C138.791 30.8353 138.422 31.0453 138.114 31.316L137.666 30.574C138.039 30.2567 138.487 30.014 139.01 29.846C139.533 29.6687 140.083 29.58 140.662 29.58ZM140.312 36.286C140.872 36.286 141.353 36.16 141.754 35.908C142.155 35.6467 142.454 35.2733 142.65 34.788V33.584H140.34C139.08 33.584 138.45 34.0227 138.45 34.9C138.45 35.3293 138.613 35.67 138.94 35.922C139.267 36.1647 139.724 36.286 140.312 36.286ZM145.644 26.612H146.638V37H145.644V26.612Z" fill="black"/>
<path d="M27.8917 31.8903C27.9156 31.8035 27.9156 31.7119 27.8917 31.625L25.8076 24.0505L39.0083 31.7577L25.8076 39.4649L27.8917 31.8903Z" fill="#C8E4BC" stroke="#4C8E11" stroke-linecap="round" stroke-linejoin="round"/>
<path d="M85.264 51.2C86.5147 51.2 87.4947 51.4987 88.204 52.096C88.9133 52.6933 89.268 53.5147 89.268 54.56C89.268 55.6053 88.9133 56.4267 88.204 57.024C87.4947 57.612 86.5147 57.906 85.264 57.906H82.632V61H81.596V51.2H85.264ZM85.236 56.996C86.2067 56.996 86.9487 56.786 87.462 56.366C87.9753 55.9367 88.232 55.3347 88.232 54.56C88.232 53.7667 87.9753 53.16 87.462 52.74C86.9487 52.3107 86.2067 52.096 85.236 52.096H82.632V56.996H85.236ZM91.3587 55.078C91.592 54.5833 91.9374 54.21 92.3947 53.958C92.8614 53.706 93.4354 53.58 94.1167 53.58V54.546L93.8787 54.532C93.104 54.532 92.4974 54.77 92.0587 55.246C91.62 55.722 91.4007 56.3893 91.4007 57.248V61H90.4067V53.636H91.3587V55.078ZM95.2165 53.636H96.2105V61H95.2165V53.636ZM95.7205 52.026C95.5151 52.026 95.3425 51.956 95.2025 51.816C95.0625 51.676 94.9925 51.508 94.9925 51.312C94.9925 51.1253 95.0625 50.962 95.2025 50.822C95.3425 50.682 95.5151 50.612 95.7205 50.612C95.9258 50.612 96.0985 50.682 96.2385 50.822C96.3785 50.9527 96.4485 51.1113 96.4485 51.298C96.4485 51.5033 96.3785 51.676 96.2385 51.816C96.0985 51.956 95.9258 52.026 95.7205 52.026ZM102.028 53.58C102.952 53.58 103.685 53.8507 104.226 54.392C104.777 54.924 105.052 55.7033 105.052 56.73V61H104.058V56.828C104.058 56.0627 103.867 55.4793 103.484 55.078C103.102 54.6767 102.556 54.476 101.846 54.476C101.053 54.476 100.423 54.714 99.9562 55.19C99.4989 55.6567 99.2702 56.3053 99.2702 57.136V61H98.2762V53.636H99.2282V54.994C99.4989 54.546 99.8722 54.2007 100.348 53.958C100.834 53.706 101.394 53.58 102.028 53.58ZM110.13 61.07C109.402 61.07 108.749 60.9113 108.17 60.594C107.601 60.2767 107.153 59.8333 106.826 59.264C106.5 58.6853 106.336 58.0367 106.336 57.318C106.336 56.5993 106.5 55.9553 106.826 55.386C107.153 54.8167 107.601 54.3733 108.17 54.056C108.749 53.7387 109.402 53.58 110.13 53.58C110.765 53.58 111.33 53.706 111.824 53.958C112.328 54.2007 112.725 54.56 113.014 55.036L112.272 55.54C112.03 55.176 111.722 54.9053 111.348 54.728C110.975 54.5413 110.569 54.448 110.13 54.448C109.598 54.448 109.118 54.5693 108.688 54.812C108.268 55.0453 107.937 55.3813 107.694 55.82C107.461 56.2587 107.344 56.758 107.344 57.318C107.344 57.8873 107.461 58.3913 107.694 58.83C107.937 59.2593 108.268 59.5953 108.688 59.838C109.118 60.0713 109.598 60.188 110.13 60.188C110.569 60.188 110.975 60.0993 111.348 59.922C111.722 59.7447 112.03 59.474 112.272 59.11L113.014 59.614C112.725 60.09 112.328 60.454 111.824 60.706C111.32 60.9487 110.756 61.07 110.13 61.07ZM114.267 53.636H115.261V61H114.267V53.636ZM115.779 50.752H117.109L114.841 52.488H113.861L115.779 50.752ZM121.121 53.58C121.811 53.58 122.437 53.7387 122.997 54.056C123.557 54.364 123.995 54.8027 124.313 55.372C124.63 55.9413 124.789 56.59 124.789 57.318C124.789 58.0553 124.63 58.7087 124.313 59.278C123.995 59.8473 123.557 60.2907 122.997 60.608C122.446 60.916 121.821 61.07 121.121 61.07C120.523 61.07 119.982 60.9487 119.497 60.706C119.021 60.454 118.629 60.09 118.321 59.614V63.716H117.327V53.636H118.279V55.092C118.577 54.6067 118.969 54.2333 119.455 53.972C119.949 53.7107 120.505 53.58 121.121 53.58ZM121.051 60.188C121.564 60.188 122.031 60.0713 122.451 59.838C122.871 59.5953 123.197 59.2547 123.431 58.816C123.673 58.3773 123.795 57.878 123.795 57.318C123.795 56.758 123.673 56.2633 123.431 55.834C123.197 55.3953 122.871 55.0547 122.451 54.812C122.031 54.5693 121.564 54.448 121.051 54.448C120.528 54.448 120.057 54.5693 119.637 54.812C119.226 55.0547 118.899 55.3953 118.657 55.834C118.423 56.2633 118.307 56.758 118.307 57.318C118.307 57.878 118.423 58.3773 118.657 58.816C118.899 59.2547 119.226 59.5953 119.637 59.838C120.057 60.0713 120.528 60.188 121.051 60.188ZM126.115 53.636H127.109V61H126.115V53.636ZM126.619 52.026C126.414 52.026 126.241 51.956 126.101 51.816C125.961 51.676 125.891 51.508 125.891 51.312C125.891 51.1253 125.961 50.962 126.101 50.822C126.241 50.682 126.414 50.612 126.619 50.612C126.824 50.612 126.997 50.682 127.137 50.822C127.277 50.9527 127.347 51.1113 127.347 51.298C127.347 51.5033 127.277 51.676 127.137 51.816C126.997 51.956 126.824 52.026 126.619 52.026ZM132.185 61.07C131.475 61.07 130.836 60.9113 130.267 60.594C129.697 60.2673 129.249 59.8193 128.923 59.25C128.596 58.6807 128.433 58.0367 128.433 57.318C128.433 56.5993 128.596 55.9553 128.923 55.386C129.249 54.8167 129.697 54.3733 130.267 54.056C130.836 53.7387 131.475 53.58 132.185 53.58C132.894 53.58 133.533 53.7387 134.103 54.056C134.672 54.3733 135.115 54.8167 135.433 55.386C135.759 55.9553 135.923 56.5993 135.923 57.318C135.923 58.0367 135.759 58.6807 135.433 59.25C135.115 59.8193 134.672 60.2673 134.103 60.594C133.533 60.9113 132.894 61.07 132.185 61.07ZM132.185 60.188C132.707 60.188 133.174 60.0713 133.585 59.838C134.005 59.5953 134.331 59.2547 134.565 58.816C134.798 58.3773 134.915 57.878 134.915 57.318C134.915 56.758 134.798 56.2587 134.565 55.82C134.331 55.3813 134.005 55.0453 133.585 54.812C133.174 54.5693 132.707 54.448 132.185 54.448C131.662 54.448 131.191 54.5693 130.771 54.812C130.36 55.0453 130.033 55.3813 129.791 55.82C129.557 56.2587 129.441 56.758 129.441 57.318C129.441 57.878 129.557 58.3773 129.791 58.816C130.033 59.2547 130.36 59.5953 130.771 59.838C131.191 60.0713 131.662 60.188 132.185 60.188ZM139.226 61.07C138.629 61.07 138.055 60.986 137.504 60.818C136.963 60.6407 136.538 60.4213 136.23 60.16L136.678 59.376C136.986 59.6187 137.373 59.8193 137.84 59.978C138.307 60.1273 138.792 60.202 139.296 60.202C139.968 60.202 140.463 60.0993 140.78 59.894C141.107 59.6793 141.27 59.3807 141.27 58.998C141.27 58.7273 141.181 58.5173 141.004 58.368C140.827 58.2093 140.603 58.0927 140.332 58.018C140.061 57.934 139.702 57.8547 139.254 57.78C138.657 57.668 138.176 57.556 137.812 57.444C137.448 57.3227 137.135 57.122 136.874 56.842C136.622 56.562 136.496 56.1747 136.496 55.68C136.496 55.064 136.753 54.56 137.266 54.168C137.779 53.776 138.493 53.58 139.408 53.58C139.884 53.58 140.36 53.6453 140.836 53.776C141.312 53.8973 141.704 54.0607 142.012 54.266L141.578 55.064C140.971 54.644 140.248 54.434 139.408 54.434C138.773 54.434 138.293 54.546 137.966 54.77C137.649 54.994 137.49 55.288 137.49 55.652C137.49 55.932 137.579 56.156 137.756 56.324C137.943 56.492 138.171 56.618 138.442 56.702C138.713 56.7767 139.086 56.856 139.562 56.94C140.15 57.052 140.621 57.164 140.976 57.276C141.331 57.388 141.634 57.5793 141.886 57.85C142.138 58.1207 142.264 58.494 142.264 58.97C142.264 59.614 141.993 60.1273 141.452 60.51C140.92 60.8833 140.178 61.07 139.226 61.07Z" fill="black"/>
<path d="M54.8917 55.8903C54.9156 55.8035 54.9156 55.7119 54.8917 55.625L52.8076 48.0505L66.0083 55.7577L52.8076 63.4649L54.8917 55.8903Z" fill="#C8E4BC" stroke="#4C8E11" stroke-linecap="round" stroke-linejoin="round"/>
<path d="M109.264 75.2C110.515 75.2 111.495 75.4987 112.204 76.096C112.913 76.6933 113.268 77.5147 113.268 78.56C113.268 79.6053 112.913 80.4267 112.204 81.024C111.495 81.612 110.515 81.906 109.264 81.906H106.632V85H105.596V75.2H109.264ZM109.236 80.996C110.207 80.996 110.949 80.786 111.462 80.366C111.975 79.9367 112.232 79.3347 112.232 78.56C112.232 77.7667 111.975 77.16 111.462 76.74C110.949 76.3107 110.207 76.096 109.236 76.096H106.632V80.996H109.236ZM115.359 79.078C115.592 78.5833 115.937 78.21 116.395 77.958C116.861 77.706 117.435 77.58 118.117 77.58V78.546L117.879 78.532C117.104 78.532 116.497 78.77 116.059 79.246C115.62 79.722 115.401 80.3893 115.401 81.248V85H114.407V77.636H115.359V79.078ZM119.216 77.636H120.21V85H119.216V77.636ZM119.72 76.026C119.515 76.026 119.342 75.956 119.202 75.816C119.062 75.676 118.992 75.508 118.992 75.312C118.992 75.1253 119.062 74.962 119.202 74.822C119.342 74.682 119.515 74.612 119.72 74.612C119.926 74.612 120.098 74.682 120.238 74.822C120.378 74.9527 120.448 75.1113 120.448 75.298C120.448 75.5033 120.378 75.676 120.238 75.816C120.098 75.956 119.926 76.026 119.72 76.026ZM126.028 77.58C126.952 77.58 127.685 77.8507 128.226 78.392C128.777 78.924 129.052 79.7033 129.052 80.73V85H128.058V80.828C128.058 80.0627 127.867 79.4793 127.484 79.078C127.102 78.6767 126.556 78.476 125.846 78.476C125.053 78.476 124.423 78.714 123.956 79.19C123.499 79.6567 123.27 80.3053 123.27 81.136V85H122.276V77.636H123.228V78.994C123.499 78.546 123.872 78.2007 124.348 77.958C124.834 77.706 125.394 77.58 126.028 77.58ZM134.13 85.07C133.402 85.07 132.749 84.9113 132.17 84.594C131.601 84.2767 131.153 83.8333 130.826 83.264C130.5 82.6853 130.336 82.0367 130.336 81.318C130.336 80.5993 130.5 79.9553 130.826 79.386C131.153 78.8167 131.601 78.3733 132.17 78.056C132.749 77.7387 133.402 77.58 134.13 77.58C134.765 77.58 135.33 77.706 135.824 77.958C136.328 78.2007 136.725 78.56 137.014 79.036L136.272 79.54C136.03 79.176 135.722 78.9053 135.348 78.728C134.975 78.5413 134.569 78.448 134.13 78.448C133.598 78.448 133.118 78.5693 132.688 78.812C132.268 79.0453 131.937 79.3813 131.694 79.82C131.461 80.2587 131.344 80.758 131.344 81.318C131.344 81.8873 131.461 82.3913 131.694 82.83C131.937 83.2593 132.268 83.5953 132.688 83.838C133.118 84.0713 133.598 84.188 134.13 84.188C134.569 84.188 134.975 84.0993 135.348 83.922C135.722 83.7447 136.03 83.474 136.272 83.11L137.014 83.614C136.725 84.09 136.328 84.454 135.824 84.706C135.32 84.9487 134.756 85.07 134.13 85.07ZM138.638 85.07C138.433 85.07 138.256 84.9953 138.106 84.846C137.966 84.6967 137.896 84.5147 137.896 84.3C137.896 84.0853 137.966 83.908 138.106 83.768C138.256 83.6187 138.433 83.544 138.638 83.544C138.844 83.544 139.021 83.6187 139.17 83.768C139.32 83.908 139.394 84.0853 139.394 84.3C139.394 84.5147 139.32 84.6967 139.17 84.846C139.021 84.9953 138.844 85.07 138.638 85.07ZM147.565 77.58C148.256 77.58 148.881 77.7387 149.441 78.056C150.001 78.364 150.44 78.8027 150.757 79.372C151.074 79.9413 151.233 80.59 151.233 81.318C151.233 82.0553 151.074 82.7087 150.757 83.278C150.44 83.8473 150.001 84.2907 149.441 84.608C148.89 84.916 148.265 85.07 147.565 85.07C146.968 85.07 146.426 84.9487 145.941 84.706C145.465 84.454 145.073 84.09 144.765 83.614V87.716H143.771V77.636H144.723V79.092C145.022 78.6067 145.414 78.2333 145.899 77.972C146.394 77.7107 146.949 77.58 147.565 77.58ZM147.495 84.188C148.008 84.188 148.475 84.0713 148.895 83.838C149.315 83.5953 149.642 83.2547 149.875 82.816C150.118 82.3773 150.239 81.878 150.239 81.318C150.239 80.758 150.118 80.2633 149.875 79.834C149.642 79.3953 149.315 79.0547 148.895 78.812C148.475 78.5693 148.008 78.448 147.495 78.448C146.972 78.448 146.501 78.5693 146.081 78.812C145.67 79.0547 145.344 79.3953 145.101 79.834C144.868 80.2633 144.751 80.758 144.751 81.318C144.751 81.878 144.868 82.3773 145.101 82.816C145.344 83.2547 145.67 83.5953 146.081 83.838C146.501 84.0713 146.972 84.188 147.495 84.188ZM153.511 79.078C153.745 78.5833 154.09 78.21 154.547 77.958C155.014 77.706 155.588 77.58 156.269 77.58V78.546L156.031 78.532C155.257 78.532 154.65 78.77 154.211 79.246C153.773 79.722 153.553 80.3893 153.553 81.248V85H152.559V77.636H153.511V79.078ZM160.311 85.07C159.602 85.07 158.962 84.9113 158.393 84.594C157.824 84.2673 157.376 83.8193 157.049 83.25C156.722 82.6807 156.559 82.0367 156.559 81.318C156.559 80.5993 156.722 79.9553 157.049 79.386C157.376 78.8167 157.824 78.3733 158.393 78.056C158.962 77.7387 159.602 77.58 160.311 77.58C161.02 77.58 161.66 77.7387 162.229 78.056C162.798 78.3733 163.242 78.8167 163.559 79.386C163.886 79.9553 164.049 80.5993 164.049 81.318C164.049 82.0367 163.886 82.6807 163.559 83.25C163.242 83.8193 162.798 84.2673 162.229 84.594C161.66 84.9113 161.02 85.07 160.311 85.07ZM160.311 84.188C160.834 84.188 161.3 84.0713 161.711 83.838C162.131 83.5953 162.458 83.2547 162.691 82.816C162.924 82.3773 163.041 81.878 163.041 81.318C163.041 80.758 162.924 80.2587 162.691 79.82C162.458 79.3813 162.131 79.0453 161.711 78.812C161.3 78.5693 160.834 78.448 160.311 78.448C159.788 78.448 159.317 78.5693 158.897 78.812C158.486 79.0453 158.16 79.3813 157.917 79.82C157.684 80.2587 157.567 80.758 157.567 81.318C157.567 81.878 157.684 82.3773 157.917 82.816C158.16 83.2547 158.486 83.5953 158.897 83.838C159.317 84.0713 159.788 84.188 160.311 84.188ZM169.256 84.552C169.07 84.72 168.836 84.8507 168.556 84.944C168.286 85.028 168.001 85.07 167.702 85.07C167.012 85.07 166.48 84.8833 166.106 84.51C165.733 84.1367 165.546 83.6093 165.546 82.928V78.476H164.23V77.636H165.546V76.026H166.54V77.636H168.78V78.476H166.54V82.872C166.54 83.3107 166.648 83.6467 166.862 83.88C167.086 84.104 167.404 84.216 167.814 84.216C168.02 84.216 168.216 84.1833 168.402 84.118C168.598 84.0527 168.766 83.9593 168.906 83.838L169.256 84.552ZM176.518 81.626H170.358C170.414 82.3913 170.708 83.012 171.24 83.488C171.772 83.9547 172.444 84.188 173.256 84.188C173.713 84.188 174.133 84.1087 174.516 83.95C174.899 83.782 175.23 83.5393 175.51 83.222L176.07 83.866C175.743 84.258 175.333 84.5567 174.838 84.762C174.353 84.9673 173.816 85.07 173.228 85.07C172.472 85.07 171.8 84.9113 171.212 84.594C170.633 84.2673 170.181 83.8193 169.854 83.25C169.527 82.6807 169.364 82.0367 169.364 81.318C169.364 80.5993 169.518 79.9553 169.826 79.386C170.143 78.8167 170.573 78.3733 171.114 78.056C171.665 77.7387 172.281 77.58 172.962 77.58C173.643 77.58 174.255 77.7387 174.796 78.056C175.337 78.3733 175.762 78.8167 176.07 79.386C176.378 79.946 176.532 80.59 176.532 81.318L176.518 81.626ZM172.962 78.434C172.253 78.434 171.655 78.6627 171.17 79.12C170.694 79.568 170.423 80.156 170.358 80.884H175.58C175.515 80.156 175.239 79.568 174.754 79.12C174.278 78.6627 173.681 78.434 172.962 78.434ZM180.907 85.07C180.179 85.07 179.526 84.9113 178.947 84.594C178.378 84.2767 177.93 83.8333 177.603 83.264C177.276 82.6853 177.113 82.0367 177.113 81.318C177.113 80.5993 177.276 79.9553 177.603 79.386C177.93 78.8167 178.378 78.3733 178.947 78.056C179.526 77.7387 180.179 77.58 180.907 77.58C181.542 77.58 182.106 77.706 182.601 77.958C183.105 78.2007 183.502 78.56 183.791 79.036L183.049 79.54C182.806 79.176 182.498 78.9053 182.125 78.728C181.752 78.5413 181.346 78.448 180.907 78.448C180.375 78.448 179.894 78.5693 179.465 78.812C179.045 79.0453 178.714 79.3813 178.471 79.82C178.238 80.2587 178.121 80.758 178.121 81.318C178.121 81.8873 178.238 82.3913 178.471 82.83C178.714 83.2593 179.045 83.5953 179.465 83.838C179.894 84.0713 180.375 84.188 180.907 84.188C181.346 84.188 181.752 84.0993 182.125 83.922C182.498 83.7447 182.806 83.474 183.049 83.11L183.791 83.614C183.502 84.09 183.105 84.454 182.601 84.706C182.097 84.9487 181.532 85.07 180.907 85.07ZM180.319 88.08C179.862 88.08 179.47 87.9727 179.143 87.758L179.381 87.226C179.652 87.4033 179.96 87.492 180.305 87.492C180.585 87.492 180.8 87.436 180.949 87.324C181.098 87.212 181.173 87.0487 181.173 86.834C181.173 86.638 181.098 86.4793 180.949 86.358C180.809 86.246 180.594 86.19 180.305 86.19H179.983L180.319 84.916H180.921L180.711 85.728C181.094 85.7653 181.388 85.882 181.593 86.078C181.798 86.2833 181.901 86.5447 181.901 86.862C181.901 87.2353 181.756 87.5293 181.467 87.744C181.178 87.968 180.795 88.08 180.319 88.08ZM187.62 77.58C188.581 77.58 189.318 77.8227 189.832 78.308C190.345 78.784 190.602 79.4933 190.602 80.436V85H189.65V83.852C189.426 84.2347 189.094 84.5333 188.656 84.748C188.226 84.9627 187.713 85.07 187.116 85.07C186.294 85.07 185.641 84.874 185.156 84.482C184.67 84.09 184.428 83.572 184.428 82.928C184.428 82.3027 184.652 81.7987 185.1 81.416C185.557 81.0333 186.28 80.842 187.27 80.842H189.608V80.394C189.608 79.7593 189.43 79.2787 189.076 78.952C188.721 78.616 188.203 78.448 187.522 78.448C187.055 78.448 186.607 78.5273 186.178 78.686C185.748 78.8353 185.38 79.0453 185.072 79.316L184.624 78.574C184.997 78.2567 185.445 78.014 185.968 77.846C186.49 77.6687 187.041 77.58 187.62 77.58ZM187.27 84.286C187.83 84.286 188.31 84.16 188.712 83.908C189.113 83.6467 189.412 83.2733 189.608 82.788V81.584H187.298C186.038 81.584 185.408 82.0227 185.408 82.9C185.408 83.3293 185.571 83.67 185.898 83.922C186.224 84.1647 186.682 84.286 187.27 84.286ZM188.6 76.404C188.385 76.404 188.194 76.3573 188.026 76.264C187.858 76.1613 187.676 76.0213 187.48 75.844C187.312 75.704 187.176 75.606 187.074 75.55C186.98 75.4847 186.878 75.452 186.766 75.452C186.551 75.452 186.378 75.5313 186.248 75.69C186.117 75.8487 186.047 76.068 186.038 76.348H185.436C185.454 75.8813 185.576 75.508 185.8 75.228C186.024 74.948 186.322 74.808 186.696 74.808C186.91 74.808 187.097 74.8547 187.256 74.948C187.424 75.0413 187.615 75.1813 187.83 75.368C187.979 75.4987 188.105 75.5967 188.208 75.662C188.31 75.7273 188.418 75.76 188.53 75.76C188.735 75.76 188.903 75.6853 189.034 75.536C189.164 75.3773 189.239 75.1627 189.258 74.892H189.86C189.841 75.3493 189.72 75.718 189.496 75.998C189.272 76.2687 188.973 76.404 188.6 76.404ZM195.639 85.07C194.93 85.07 194.29 84.9113 193.721 84.594C193.152 84.2673 192.704 83.8193 192.377 83.25C192.05 82.6807 191.887 82.0367 191.887 81.318C191.887 80.5993 192.05 79.9553 192.377 79.386C192.704 78.8167 193.152 78.3733 193.721 78.056C194.29 77.7387 194.93 77.58 195.639 77.58C196.348 77.58 196.988 77.7387 197.557 78.056C198.126 78.3733 198.57 78.8167 198.887 79.386C199.214 79.9553 199.377 80.5993 199.377 81.318C199.377 82.0367 199.214 82.6807 198.887 83.25C198.57 83.8193 198.126 84.2673 197.557 84.594C196.988 84.9113 196.348 85.07 195.639 85.07ZM195.639 84.188C196.162 84.188 196.628 84.0713 197.039 83.838C197.459 83.5953 197.786 83.2547 198.019 82.816C198.252 82.3773 198.369 81.878 198.369 81.318C198.369 80.758 198.252 80.2587 198.019 79.82C197.786 79.3813 197.459 79.0453 197.039 78.812C196.628 78.5693 196.162 78.448 195.639 78.448C195.116 78.448 194.645 78.5693 194.225 78.812C193.814 79.0453 193.488 79.3813 193.245 79.82C193.012 80.2587 192.895 80.758 192.895 81.318C192.895 81.878 193.012 82.3773 193.245 82.816C193.488 83.2547 193.814 83.5953 194.225 83.838C194.645 84.0713 195.116 84.188 195.639 84.188ZM210.39 74.612V85H209.438V83.544C209.14 84.0387 208.743 84.4167 208.248 84.678C207.763 84.9393 207.212 85.07 206.596 85.07C205.906 85.07 205.28 84.9113 204.72 84.594C204.16 84.2767 203.722 83.8333 203.404 83.264C203.087 82.6947 202.928 82.046 202.928 81.318C202.928 80.59 203.087 79.9413 203.404 79.372C203.722 78.8027 204.16 78.364 204.72 78.056C205.28 77.7387 205.906 77.58 206.596 77.58C207.194 77.58 207.73 77.706 208.206 77.958C208.692 78.2007 209.088 78.56 209.396 79.036V74.612H210.39ZM206.68 84.188C207.194 84.188 207.656 84.0713 208.066 83.838C208.486 83.5953 208.813 83.2547 209.046 82.816C209.289 82.3773 209.41 81.878 209.41 81.318C209.41 80.758 209.289 80.2587 209.046 79.82C208.813 79.3813 208.486 79.0453 208.066 78.812C207.656 78.5693 207.194 78.448 206.68 78.448C206.158 78.448 205.686 78.5693 205.266 78.812C204.856 79.0453 204.529 79.3813 204.286 79.82C204.053 80.2587 203.936 80.758 203.936 81.318C203.936 81.878 204.053 82.3773 204.286 82.816C204.529 83.2547 204.856 83.5953 205.266 83.838C205.686 84.0713 206.158 84.188 206.68 84.188ZM215.035 77.58C215.996 77.58 216.733 77.8227 217.247 78.308C217.76 78.784 218.017 79.4933 218.017 80.436V85H217.065V83.852C216.841 84.2347 216.509 84.5333 216.071 84.748C215.641 84.9627 215.128 85.07 214.531 85.07C213.709 85.07 213.056 84.874 212.571 84.482C212.085 84.09 211.843 83.572 211.843 82.928C211.843 82.3027 212.067 81.7987 212.515 81.416C212.972 81.0333 213.695 80.842 214.685 80.842H217.023V80.394C217.023 79.7593 216.845 79.2787 216.491 78.952C216.136 78.616 215.618 78.448 214.937 78.448C214.47 78.448 214.022 78.5273 213.593 78.686C213.163 78.8353 212.795 79.0453 212.487 79.316L212.039 78.574C212.412 78.2567 212.86 78.014 213.383 77.846C213.905 77.6687 214.456 77.58 215.035 77.58ZM214.685 84.286C215.245 84.286 215.725 84.16 216.127 83.908C216.528 83.6467 216.827 83.2733 217.023 82.788V81.584H214.713C213.453 81.584 212.823 82.0227 212.823 82.9C212.823 83.3293 212.986 83.67 213.313 83.922C213.639 84.1647 214.097 84.286 214.685 84.286ZM229.701 74.612V85H228.749V83.544C228.45 84.0387 228.053 84.4167 227.559 84.678C227.073 84.9393 226.523 85.07 225.907 85.07C225.216 85.07 224.591 84.9113 224.031 84.594C223.471 84.2767 223.032 83.8333 222.715 83.264C222.397 82.6947 222.239 82.046 222.239 81.318C222.239 80.59 222.397 79.9413 222.715 79.372C223.032 78.8027 223.471 78.364 224.031 78.056C224.591 77.7387 225.216 77.58 225.907 77.58C226.504 77.58 227.041 77.706 227.517 77.958C228.002 78.2007 228.399 78.56 228.707 79.036V74.612H229.701ZM225.991 84.188C226.504 84.188 226.966 84.0713 227.377 83.838C227.797 83.5953 228.123 83.2547 228.357 82.816C228.599 82.3773 228.721 81.878 228.721 81.318C228.721 80.758 228.599 80.2587 228.357 79.82C228.123 79.3813 227.797 79.0453 227.377 78.812C226.966 78.5693 226.504 78.448 225.991 78.448C225.468 78.448 224.997 78.5693 224.577 78.812C224.166 79.0453 223.839 79.3813 223.597 79.82C223.363 80.2587 223.247 80.758 223.247 81.318C223.247 81.878 223.363 82.3773 223.597 82.816C223.839 83.2547 224.166 83.5953 224.577 83.838C224.997 84.0713 225.468 84.188 225.991 84.188ZM231.769 77.636H232.763V85H231.769V77.636ZM232.273 76.026C232.067 76.026 231.895 75.956 231.755 75.816C231.615 75.676 231.545 75.508 231.545 75.312C231.545 75.1253 231.615 74.962 231.755 74.822C231.895 74.682 232.067 74.612 232.273 74.612C232.478 74.612 232.651 74.682 232.791 74.822C232.931 74.9527 233.001 75.1113 233.001 75.298C233.001 75.5033 232.931 75.676 232.791 75.816C232.651 75.956 232.478 76.026 232.273 76.026ZM241.647 77.636V84.104C241.647 85.3547 241.339 86.2787 240.723 86.876C240.116 87.4827 239.197 87.786 237.965 87.786C237.283 87.786 236.635 87.6833 236.019 87.478C235.412 87.282 234.917 87.0067 234.535 86.652L235.039 85.896C235.393 86.2133 235.823 86.4607 236.327 86.638C236.84 86.8153 237.377 86.904 237.937 86.904C238.87 86.904 239.556 86.6847 239.995 86.246C240.433 85.8167 240.653 85.1447 240.653 84.23V83.292C240.345 83.7587 239.939 84.1133 239.435 84.356C238.94 84.5987 238.389 84.72 237.783 84.72C237.092 84.72 236.462 84.5707 235.893 84.272C235.333 83.964 234.889 83.5393 234.563 82.998C234.245 82.4473 234.087 81.8267 234.087 81.136C234.087 80.4453 234.245 79.8293 234.563 79.288C234.889 78.7467 235.333 78.3267 235.893 78.028C236.453 77.7293 237.083 77.58 237.783 77.58C238.408 77.58 238.973 77.706 239.477 77.958C239.981 78.21 240.387 78.574 240.695 79.05V77.636H241.647ZM237.881 83.838C238.413 83.838 238.893 83.726 239.323 83.502C239.752 83.2687 240.083 82.9467 240.317 82.536C240.559 82.1253 240.681 81.6587 240.681 81.136C240.681 80.6133 240.559 80.1513 240.317 79.75C240.083 79.3393 239.752 79.022 239.323 78.798C238.903 78.5647 238.422 78.448 237.881 78.448C237.349 78.448 236.868 78.56 236.439 78.784C236.019 79.008 235.687 79.3253 235.445 79.736C235.211 80.1467 235.095 80.6133 235.095 81.136C235.095 81.6587 235.211 82.1253 235.445 82.536C235.687 82.9467 236.019 83.2687 236.439 83.502C236.868 83.726 237.349 83.838 237.881 83.838ZM243.824 85.07C243.619 85.07 243.442 84.9953 243.292 84.846C243.152 84.6967 243.082 84.5147 243.082 84.3C243.082 84.0853 243.152 83.908 243.292 83.768C243.442 83.6187 243.619 83.544 243.824 83.544C244.03 83.544 244.207 83.6187 244.356 83.768C244.506 83.908 244.58 84.0853 244.58 84.3C244.58 84.5147 244.506 84.6967 244.356 84.846C244.207 84.9953 244.03 85.07 243.824 85.07ZM252.709 77.58C253.633 77.58 254.366 77.8507 254.907 78.392C255.458 78.924 255.733 79.7033 255.733 80.73V85H254.739V80.828C254.739 80.0627 254.548 79.4793 254.165 79.078C253.782 78.6767 253.236 78.476 252.527 78.476C251.734 78.476 251.104 78.714 250.637 79.19C250.18 79.6567 249.951 80.3053 249.951 81.136V85H248.957V74.612H249.951V78.924C250.222 78.4947 250.595 78.1633 251.071 77.93C251.547 77.6967 252.093 77.58 252.709 77.58ZM264.368 77.636V85H263.416V83.656C263.154 84.104 262.795 84.454 262.338 84.706C261.88 84.9487 261.358 85.07 260.77 85.07C259.808 85.07 259.048 84.804 258.488 84.272C257.937 83.7307 257.662 82.942 257.662 81.906V77.636H258.656V81.808C258.656 82.5827 258.847 83.1707 259.23 83.572C259.612 83.9733 260.158 84.174 260.868 84.174C261.642 84.174 262.254 83.9407 262.702 83.474C263.15 82.998 263.374 82.34 263.374 81.5V77.636H264.368ZM275.636 77.58C276.56 77.58 277.283 77.846 277.806 78.378C278.338 78.91 278.604 79.694 278.604 80.73V85H277.61V80.828C277.61 80.0627 277.423 79.4793 277.05 79.078C276.686 78.6767 276.168 78.476 275.496 78.476C274.73 78.476 274.128 78.714 273.69 79.19C273.251 79.6567 273.032 80.3053 273.032 81.136V85H272.038V80.828C272.038 80.0627 271.851 79.4793 271.478 79.078C271.114 78.6767 270.591 78.476 269.91 78.476C269.154 78.476 268.552 78.714 268.104 79.19C267.665 79.6567 267.446 80.3053 267.446 81.136V85H266.452V77.636H267.404V78.98C267.665 78.532 268.029 78.1867 268.496 77.944C268.962 77.7013 269.499 77.58 270.106 77.58C270.722 77.58 271.254 77.7107 271.702 77.972C272.159 78.2333 272.5 78.6207 272.724 79.134C272.994 78.6487 273.382 78.2707 273.886 78C274.399 77.72 274.982 77.58 275.636 77.58ZM283.175 77.58C284.137 77.58 284.874 77.8227 285.387 78.308C285.901 78.784 286.157 79.4933 286.157 80.436V85H285.205V83.852C284.981 84.2347 284.65 84.5333 284.211 84.748C283.782 84.9627 283.269 85.07 282.671 85.07C281.85 85.07 281.197 84.874 280.711 84.482C280.226 84.09 279.983 83.572 279.983 82.928C279.983 82.3027 280.207 81.7987 280.655 81.416C281.113 81.0333 281.836 80.842 282.825 80.842H285.163V80.394C285.163 79.7593 284.986 79.2787 284.631 78.952C284.277 78.616 283.759 78.448 283.077 78.448C282.611 78.448 282.163 78.5273 281.733 78.686C281.304 78.8353 280.935 79.0453 280.627 79.316L280.179 78.574C280.553 78.2567 281.001 78.014 281.523 77.846C282.046 77.6687 282.597 77.58 283.175 77.58ZM282.825 84.286C283.385 84.286 283.866 84.16 284.267 83.908C284.669 83.6467 284.967 83.2733 285.163 82.788V81.584H282.853C281.593 81.584 280.963 82.0227 280.963 82.9C280.963 83.3293 281.127 83.67 281.453 83.922C281.78 84.1647 282.237 84.286 282.825 84.286ZM291.909 77.58C292.833 77.58 293.566 77.8507 294.107 78.392C294.658 78.924 294.933 79.7033 294.933 80.73V85H293.939V80.828C293.939 80.0627 293.748 79.4793 293.365 79.078C292.982 78.6767 292.436 78.476 291.727 78.476C290.934 78.476 290.304 78.714 289.837 79.19C289.38 79.6567 289.151 80.3053 289.151 81.136V85H288.157V77.636H289.109V78.994C289.38 78.546 289.753 78.2007 290.229 77.958C290.714 77.706 291.274 77.58 291.909 77.58ZM299.508 77.58C300.469 77.58 301.206 77.8227 301.72 78.308C302.233 78.784 302.49 79.4933 302.49 80.436V85H301.538V83.852C301.314 84.2347 300.982 84.5333 300.544 84.748C300.114 84.9627 299.601 85.07 299.004 85.07C298.182 85.07 297.529 84.874 297.044 84.482C296.558 84.09 296.316 83.572 296.316 82.928C296.316 82.3027 296.54 81.7987 296.988 81.416C297.445 81.0333 298.168 80.842 299.158 80.842H301.496V80.394C301.496 79.7593 301.318 79.2787 300.964 78.952C300.609 78.616 300.091 78.448 299.41 78.448C298.943 78.448 298.495 78.5273 298.066 78.686C297.636 78.8353 297.268 79.0453 296.96 79.316L296.512 78.574C296.885 78.2567 297.333 78.014 297.856 77.846C298.378 77.6687 298.929 77.58 299.508 77.58ZM299.158 84.286C299.718 84.286 300.198 84.16 300.6 83.908C301.001 83.6467 301.3 83.2733 301.496 82.788V81.584H299.186C297.926 81.584 297.296 82.0227 297.296 82.9C297.296 83.3293 297.459 83.67 297.786 83.922C298.112 84.1647 298.57 84.286 299.158 84.286Z" fill="black"/>
<path d="M95 79.7577L80 71L82.4096 79.7577L80 88.5154L95 79.7577Z" fill="#4C8E11"/>
<path d="M112.264 99.2C113.515 99.2 114.495 99.4987 115.204 100.096C115.913 100.693 116.268 101.515 116.268 102.56C116.268 103.605 115.913 104.427 115.204 105.024C114.495 105.612 113.515 105.906 112.264 105.906H109.632V109H108.596V99.2H112.264ZM112.236 104.996C113.207 104.996 113.949 104.786 114.462 104.366C114.975 103.937 115.232 103.335 115.232 102.56C115.232 101.767 114.975 101.16 114.462 100.74C113.949 100.311 113.207 100.096 112.236 100.096H109.632V104.996H112.236ZM118.359 103.078C118.592 102.583 118.937 102.21 119.395 101.958C119.861 101.706 120.435 101.58 121.117 101.58V102.546L120.879 102.532C120.104 102.532 119.497 102.77 119.059 103.246C118.62 103.722 118.401 104.389 118.401 105.248V109H117.407V101.636H118.359V103.078ZM122.216 101.636H123.21V109H122.216V101.636ZM122.72 100.026C122.515 100.026 122.342 99.956 122.202 99.816C122.062 99.676 121.992 99.508 121.992 99.312C121.992 99.1253 122.062 98.962 122.202 98.822C122.342 98.682 122.515 98.612 122.72 98.612C122.926 98.612 123.098 98.682 123.238 98.822C123.378 98.9527 123.448 99.1113 123.448 99.298C123.448 99.5033 123.378 99.676 123.238 99.816C123.098 99.956 122.926 100.026 122.72 100.026ZM129.028 101.58C129.952 101.58 130.685 101.851 131.226 102.392C131.777 102.924 132.052 103.703 132.052 104.73V109H131.058V104.828C131.058 104.063 130.867 103.479 130.484 103.078C130.102 102.677 129.556 102.476 128.846 102.476C128.053 102.476 127.423 102.714 126.956 103.19C126.499 103.657 126.27 104.305 126.27 105.136V109H125.276V101.636H126.228V102.994C126.499 102.546 126.872 102.201 127.348 101.958C127.834 101.706 128.394 101.58 129.028 101.58ZM137.13 109.07C136.402 109.07 135.749 108.911 135.17 108.594C134.601 108.277 134.153 107.833 133.826 107.264C133.5 106.685 133.336 106.037 133.336 105.318C133.336 104.599 133.5 103.955 133.826 103.386C134.153 102.817 134.601 102.373 135.17 102.056C135.749 101.739 136.402 101.58 137.13 101.58C137.765 101.58 138.33 101.706 138.824 101.958C139.328 102.201 139.725 102.56 140.014 103.036L139.272 103.54C139.03 103.176 138.722 102.905 138.348 102.728C137.975 102.541 137.569 102.448 137.13 102.448C136.598 102.448 136.118 102.569 135.688 102.812C135.268 103.045 134.937 103.381 134.694 103.82C134.461 104.259 134.344 104.758 134.344 105.318C134.344 105.887 134.461 106.391 134.694 106.83C134.937 107.259 135.268 107.595 135.688 107.838C136.118 108.071 136.598 108.188 137.13 108.188C137.569 108.188 137.975 108.099 138.348 107.922C138.722 107.745 139.03 107.474 139.272 107.11L140.014 107.614C139.725 108.09 139.328 108.454 138.824 108.706C138.32 108.949 137.756 109.07 137.13 109.07ZM141.638 109.07C141.433 109.07 141.256 108.995 141.106 108.846C140.966 108.697 140.896 108.515 140.896 108.3C140.896 108.085 140.966 107.908 141.106 107.768C141.256 107.619 141.433 107.544 141.638 107.544C141.844 107.544 142.021 107.619 142.17 107.768C142.32 107.908 142.394 108.085 142.394 108.3C142.394 108.515 142.32 108.697 142.17 108.846C142.021 108.995 141.844 109.07 141.638 109.07ZM148.745 109.07C148.148 109.07 147.574 108.986 147.023 108.818C146.482 108.641 146.057 108.421 145.749 108.16L146.197 107.376C146.505 107.619 146.892 107.819 147.359 107.978C147.826 108.127 148.311 108.202 148.815 108.202C149.487 108.202 149.982 108.099 150.299 107.894C150.626 107.679 150.789 107.381 150.789 106.998C150.789 106.727 150.7 106.517 150.523 106.368C150.346 106.209 150.122 106.093 149.851 106.018C149.58 105.934 149.221 105.855 148.773 105.78C148.176 105.668 147.695 105.556 147.331 105.444C146.967 105.323 146.654 105.122 146.393 104.842C146.141 104.562 146.015 104.175 146.015 103.68C146.015 103.064 146.272 102.56 146.785 102.168C147.298 101.776 148.012 101.58 148.927 101.58C149.403 101.58 149.879 101.645 150.355 101.776C150.831 101.897 151.223 102.061 151.531 102.266L151.097 103.064C150.49 102.644 149.767 102.434 148.927 102.434C148.292 102.434 147.812 102.546 147.485 102.77C147.168 102.994 147.009 103.288 147.009 103.652C147.009 103.932 147.098 104.156 147.275 104.324C147.462 104.492 147.69 104.618 147.961 104.702C148.232 104.777 148.605 104.856 149.081 104.94C149.669 105.052 150.14 105.164 150.495 105.276C150.85 105.388 151.153 105.579 151.405 105.85C151.657 106.121 151.783 106.494 151.783 106.97C151.783 107.614 151.512 108.127 150.971 108.51C150.439 108.883 149.697 109.07 148.745 109.07ZM155.931 109.07C155.221 109.07 154.582 108.911 154.013 108.594C153.443 108.267 152.995 107.819 152.669 107.25C152.342 106.681 152.179 106.037 152.179 105.318C152.179 104.599 152.342 103.955 152.669 103.386C152.995 102.817 153.443 102.373 154.013 102.056C154.582 101.739 155.221 101.58 155.931 101.58C156.64 101.58 157.279 101.739 157.849 102.056C158.418 102.373 158.861 102.817 159.179 103.386C159.505 103.955 159.669 104.599 159.669 105.318C159.669 106.037 159.505 106.681 159.179 107.25C158.861 107.819 158.418 108.267 157.849 108.594C157.279 108.911 156.64 109.07 155.931 109.07ZM155.931 108.188C156.453 108.188 156.92 108.071 157.331 107.838C157.751 107.595 158.077 107.255 158.311 106.816C158.544 106.377 158.661 105.878 158.661 105.318C158.661 104.758 158.544 104.259 158.311 103.82C158.077 103.381 157.751 103.045 157.331 102.812C156.92 102.569 156.453 102.448 155.931 102.448C155.408 102.448 154.937 102.569 154.517 102.812C154.106 103.045 153.779 103.381 153.537 103.82C153.303 104.259 153.187 104.758 153.187 105.318C153.187 105.878 153.303 106.377 153.537 106.816C153.779 107.255 154.106 107.595 154.517 107.838C154.937 108.071 155.408 108.188 155.931 108.188ZM160.998 98.612H161.992V109H160.998V98.612ZM164.058 101.636H165.052V109H164.058V101.636ZM164.562 100.026C164.357 100.026 164.184 99.956 164.044 99.816C163.904 99.676 163.834 99.508 163.834 99.312C163.834 99.1253 163.904 98.962 164.044 98.822C164.184 98.682 164.357 98.612 164.562 98.612C164.767 98.612 164.94 98.682 165.08 98.822C165.22 98.9527 165.29 99.1113 165.29 99.298C165.29 99.5033 165.22 99.676 165.08 99.816C164.94 99.956 164.767 100.026 164.562 100.026ZM173.838 98.612V109H172.886V107.544C172.587 108.039 172.19 108.417 171.696 108.678C171.21 108.939 170.66 109.07 170.044 109.07C169.353 109.07 168.728 108.911 168.168 108.594C167.608 108.277 167.169 107.833 166.852 107.264C166.534 106.695 166.376 106.046 166.376 105.318C166.376 104.59 166.534 103.941 166.852 103.372C167.169 102.803 167.608 102.364 168.168 102.056C168.728 101.739 169.353 101.58 170.044 101.58C170.641 101.58 171.178 101.706 171.654 101.958C172.139 102.201 172.536 102.56 172.844 103.036V98.612H173.838ZM170.128 108.188C170.641 108.188 171.103 108.071 171.514 107.838C171.934 107.595 172.26 107.255 172.494 106.816C172.736 106.377 172.858 105.878 172.858 105.318C172.858 104.758 172.736 104.259 172.494 103.82C172.26 103.381 171.934 103.045 171.514 102.812C171.103 102.569 170.641 102.448 170.128 102.448C169.605 102.448 169.134 102.569 168.714 102.812C168.303 103.045 167.976 103.381 167.734 103.82C167.5 104.259 167.384 104.758 167.384 105.318C167.384 105.878 167.5 106.377 167.734 106.816C167.976 107.255 168.303 107.595 168.714 107.838C169.134 108.071 169.605 108.188 170.128 108.188ZM178.482 101.58C179.443 101.58 180.181 101.823 180.694 102.308C181.207 102.784 181.464 103.493 181.464 104.436V109H180.512V107.852C180.288 108.235 179.957 108.533 179.518 108.748C179.089 108.963 178.575 109.07 177.978 109.07C177.157 109.07 176.503 108.874 176.018 108.482C175.533 108.09 175.29 107.572 175.29 106.928C175.29 106.303 175.514 105.799 175.962 105.416C176.419 105.033 177.143 104.842 178.132 104.842H180.47V104.394C180.47 103.759 180.293 103.279 179.938 102.952C179.583 102.616 179.065 102.448 178.384 102.448C177.917 102.448 177.469 102.527 177.04 102.686C176.611 102.835 176.242 103.045 175.934 103.316L175.486 102.574C175.859 102.257 176.307 102.014 176.83 101.846C177.353 101.669 177.903 101.58 178.482 101.58ZM178.132 108.286C178.692 108.286 179.173 108.16 179.574 107.908C179.975 107.647 180.274 107.273 180.47 106.788V105.584H178.16C176.9 105.584 176.27 106.023 176.27 106.9C176.27 107.329 176.433 107.67 176.76 107.922C177.087 108.165 177.544 108.286 178.132 108.286ZM184.416 103.078C184.649 102.583 184.994 102.21 185.452 101.958C185.918 101.706 186.492 101.58 187.174 101.58V102.546L186.936 102.532C186.161 102.532 185.554 102.77 185.116 103.246C184.677 103.722 184.458 104.389 184.458 105.248V109H183.464V101.636H184.416V103.078ZM188.273 101.636H189.267V109H188.273V101.636ZM188.777 100.026C188.572 100.026 188.399 99.956 188.259 99.816C188.119 99.676 188.049 99.508 188.049 99.312C188.049 99.1253 188.119 98.962 188.259 98.822C188.399 98.682 188.572 98.612 188.777 98.612C188.983 98.612 189.155 98.682 189.295 98.822C189.435 98.9527 189.505 99.1113 189.505 99.298C189.505 99.5033 189.435 99.676 189.295 99.816C189.155 99.956 188.983 100.026 188.777 100.026ZM197.745 105.626H191.585C191.641 106.391 191.935 107.012 192.467 107.488C192.999 107.955 193.671 108.188 194.483 108.188C194.941 108.188 195.361 108.109 195.743 107.95C196.126 107.782 196.457 107.539 196.737 107.222L197.297 107.866C196.971 108.258 196.56 108.557 196.065 108.762C195.58 108.967 195.043 109.07 194.455 109.07C193.699 109.07 193.027 108.911 192.439 108.594C191.861 108.267 191.408 107.819 191.081 107.25C190.755 106.681 190.591 106.037 190.591 105.318C190.591 104.599 190.745 103.955 191.053 103.386C191.371 102.817 191.8 102.373 192.341 102.056C192.892 101.739 193.508 101.58 194.189 101.58C194.871 101.58 195.482 101.739 196.023 102.056C196.565 102.373 196.989 102.817 197.297 103.386C197.605 103.946 197.759 104.59 197.759 105.318L197.745 105.626ZM194.189 102.434C193.48 102.434 192.883 102.663 192.397 103.12C191.921 103.568 191.651 104.156 191.585 104.884H196.807C196.742 104.156 196.467 103.568 195.981 103.12C195.505 102.663 194.908 102.434 194.189 102.434ZM205.802 98.612V109H204.85V107.544C204.552 108.039 204.155 108.417 203.66 108.678C203.175 108.939 202.624 109.07 202.008 109.07C201.318 109.07 200.692 108.911 200.132 108.594C199.572 108.277 199.134 107.833 198.816 107.264C198.499 106.695 198.34 106.046 198.34 105.318C198.34 104.59 198.499 103.941 198.816 103.372C199.134 102.803 199.572 102.364 200.132 102.056C200.692 101.739 201.318 101.58 202.008 101.58C202.606 101.58 203.142 101.706 203.618 101.958C204.104 102.201 204.5 102.56 204.808 103.036V98.612H205.802ZM202.092 108.188C202.606 108.188 203.068 108.071 203.478 107.838C203.898 107.595 204.225 107.255 204.458 106.816C204.701 106.377 204.822 105.878 204.822 105.318C204.822 104.758 204.701 104.259 204.458 103.82C204.225 103.381 203.898 103.045 203.478 102.812C203.068 102.569 202.606 102.448 202.092 102.448C201.57 102.448 201.098 102.569 200.678 102.812C200.268 103.045 199.941 103.381 199.698 103.82C199.465 104.259 199.348 104.758 199.348 105.318C199.348 105.878 199.465 106.377 199.698 106.816C199.941 107.255 200.268 107.595 200.678 107.838C201.098 108.071 201.57 108.188 202.092 108.188ZM210.447 101.58C211.408 101.58 212.145 101.823 212.659 102.308C213.172 102.784 213.429 103.493 213.429 104.436V109H212.477V107.852C212.253 108.235 211.921 108.533 211.483 108.748C211.053 108.963 210.54 109.07 209.943 109.07C209.121 109.07 208.468 108.874 207.983 108.482C207.497 108.09 207.255 107.572 207.255 106.928C207.255 106.303 207.479 105.799 207.927 105.416C208.384 105.033 209.107 104.842 210.097 104.842H212.435V104.394C212.435 103.759 212.257 103.279 211.903 102.952C211.548 102.616 211.03 102.448 210.349 102.448C209.882 102.448 209.434 102.527 209.005 102.686C208.575 102.835 208.207 103.045 207.899 103.316L207.451 102.574C207.824 102.257 208.272 102.014 208.795 101.846C209.317 101.669 209.868 101.58 210.447 101.58ZM210.097 108.286C210.657 108.286 211.137 108.16 211.539 107.908C211.94 107.647 212.239 107.273 212.435 106.788V105.584H210.125C208.865 105.584 208.235 106.023 208.235 106.9C208.235 107.329 208.398 107.67 208.725 107.922C209.051 108.165 209.509 108.286 210.097 108.286ZM222.176 98.612V109H221.224V107.544C220.925 108.039 220.529 108.417 220.034 108.678C219.549 108.939 218.998 109.07 218.382 109.07C217.691 109.07 217.066 108.911 216.506 108.594C215.946 108.277 215.507 107.833 215.19 107.264C214.873 106.695 214.714 106.046 214.714 105.318C214.714 104.59 214.873 103.941 215.19 103.372C215.507 102.803 215.946 102.364 216.506 102.056C217.066 101.739 217.691 101.58 218.382 101.58C218.979 101.58 219.516 101.706 219.992 101.958C220.477 102.201 220.874 102.56 221.182 103.036V98.612H222.176ZM218.466 108.188C218.979 108.188 219.441 108.071 219.852 107.838C220.272 107.595 220.599 107.255 220.832 106.816C221.075 106.377 221.196 105.878 221.196 105.318C221.196 104.758 221.075 104.259 220.832 103.82C220.599 103.381 220.272 103.045 219.852 102.812C219.441 102.569 218.979 102.448 218.466 102.448C217.943 102.448 217.472 102.569 217.052 102.812C216.641 103.045 216.315 103.381 216.072 103.82C215.839 104.259 215.722 104.758 215.722 105.318C215.722 105.878 215.839 106.377 216.072 106.816C216.315 107.255 216.641 107.595 217.052 107.838C217.472 108.071 217.943 108.188 218.466 108.188ZM230.656 105.626H224.496C224.552 106.391 224.846 107.012 225.378 107.488C225.91 107.955 226.582 108.188 227.394 108.188C227.852 108.188 228.272 108.109 228.654 107.95C229.037 107.782 229.368 107.539 229.648 107.222L230.208 107.866C229.882 108.258 229.471 108.557 228.976 108.762C228.491 108.967 227.954 109.07 227.366 109.07C226.61 109.07 225.938 108.911 225.35 108.594C224.772 108.267 224.319 107.819 223.992 107.25C223.666 106.681 223.502 106.037 223.502 105.318C223.502 104.599 223.656 103.955 223.964 103.386C224.282 102.817 224.711 102.373 225.252 102.056C225.803 101.739 226.419 101.58 227.1 101.58C227.782 101.58 228.393 101.739 228.934 102.056C229.476 102.373 229.9 102.817 230.208 103.386C230.516 103.946 230.67 104.59 230.67 105.318L230.656 105.626ZM227.1 102.434C226.391 102.434 225.794 102.663 225.308 103.12C224.832 103.568 224.562 104.156 224.496 104.884H229.718C229.653 104.156 229.378 103.568 228.892 103.12C228.416 102.663 227.819 102.434 227.1 102.434Z" fill="black"/>
<path d="M95 103.758L80 95L82.4096 103.758L80 112.515L95 103.758Z" fill="#C33737"/>
<path d="M111.264 123.2C112.515 123.2 113.495 123.499 114.204 124.096C114.913 124.693 115.268 125.515 115.268 126.56C115.268 127.605 114.913 128.427 114.204 129.024C113.495 129.612 112.515 129.906 111.264 129.906H108.632V133H107.596V123.2H111.264ZM111.236 128.996C112.207 128.996 112.949 128.786 113.462 128.366C113.975 127.937 114.232 127.335 114.232 126.56C114.232 125.767 113.975 125.16 113.462 124.74C112.949 124.311 112.207 124.096 111.236 124.096H108.632V128.996H111.236ZM117.359 127.078C117.592 126.583 117.937 126.21 118.395 125.958C118.861 125.706 119.435 125.58 120.117 125.58V126.546L119.879 126.532C119.104 126.532 118.497 126.77 118.059 127.246C117.62 127.722 117.401 128.389 117.401 129.248V133H116.407V125.636H117.359V127.078ZM121.216 125.636H122.21V133H121.216V125.636ZM121.72 124.026C121.515 124.026 121.342 123.956 121.202 123.816C121.062 123.676 120.992 123.508 120.992 123.312C120.992 123.125 121.062 122.962 121.202 122.822C121.342 122.682 121.515 122.612 121.72 122.612C121.926 122.612 122.098 122.682 122.238 122.822C122.378 122.953 122.448 123.111 122.448 123.298C122.448 123.503 122.378 123.676 122.238 123.816C122.098 123.956 121.926 124.026 121.72 124.026ZM128.028 125.58C128.952 125.58 129.685 125.851 130.226 126.392C130.777 126.924 131.052 127.703 131.052 128.73V133H130.058V128.828C130.058 128.063 129.867 127.479 129.484 127.078C129.102 126.677 128.556 126.476 127.846 126.476C127.053 126.476 126.423 126.714 125.956 127.19C125.499 127.657 125.27 128.305 125.27 129.136V133H124.276V125.636H125.228V126.994C125.499 126.546 125.872 126.201 126.348 125.958C126.834 125.706 127.394 125.58 128.028 125.58ZM136.13 133.07C135.402 133.07 134.749 132.911 134.17 132.594C133.601 132.277 133.153 131.833 132.826 131.264C132.5 130.685 132.336 130.037 132.336 129.318C132.336 128.599 132.5 127.955 132.826 127.386C133.153 126.817 133.601 126.373 134.17 126.056C134.749 125.739 135.402 125.58 136.13 125.58C136.765 125.58 137.33 125.706 137.824 125.958C138.328 126.201 138.725 126.56 139.014 127.036L138.272 127.54C138.03 127.176 137.722 126.905 137.348 126.728C136.975 126.541 136.569 126.448 136.13 126.448C135.598 126.448 135.118 126.569 134.688 126.812C134.268 127.045 133.937 127.381 133.694 127.82C133.461 128.259 133.344 128.758 133.344 129.318C133.344 129.887 133.461 130.391 133.694 130.83C133.937 131.259 134.268 131.595 134.688 131.838C135.118 132.071 135.598 132.188 136.13 132.188C136.569 132.188 136.975 132.099 137.348 131.922C137.722 131.745 138.03 131.474 138.272 131.11L139.014 131.614C138.725 132.09 138.328 132.454 137.824 132.706C137.32 132.949 136.756 133.07 136.13 133.07ZM140.638 133.07C140.433 133.07 140.256 132.995 140.106 132.846C139.966 132.697 139.896 132.515 139.896 132.3C139.896 132.085 139.966 131.908 140.106 131.768C140.256 131.619 140.433 131.544 140.638 131.544C140.844 131.544 141.021 131.619 141.17 131.768C141.32 131.908 141.394 132.085 141.394 132.3C141.394 132.515 141.32 132.697 141.17 132.846C141.021 132.995 140.844 133.07 140.638 133.07ZM145.771 125.636H146.765V133H145.771V125.636ZM146.275 124.026C146.07 124.026 145.897 123.956 145.757 123.816C145.617 123.676 145.547 123.508 145.547 123.312C145.547 123.125 145.617 122.962 145.757 122.822C145.897 122.682 146.07 122.612 146.275 122.612C146.48 122.612 146.653 122.682 146.793 122.822C146.933 122.953 147.003 123.111 147.003 123.298C147.003 123.503 146.933 123.676 146.793 123.816C146.653 123.956 146.48 124.026 146.275 124.026ZM155.649 125.636V132.104C155.649 133.355 155.341 134.279 154.725 134.876C154.118 135.483 153.199 135.786 151.967 135.786C151.286 135.786 150.637 135.683 150.021 135.478C149.414 135.282 148.92 135.007 148.537 134.652L149.041 133.896C149.396 134.213 149.825 134.461 150.329 134.638C150.842 134.815 151.379 134.904 151.939 134.904C152.872 134.904 153.558 134.685 153.997 134.246C154.436 133.817 154.655 133.145 154.655 132.23V131.292C154.347 131.759 153.941 132.113 153.437 132.356C152.942 132.599 152.392 132.72 151.785 132.72C151.094 132.72 150.464 132.571 149.895 132.272C149.335 131.964 148.892 131.539 148.565 130.998C148.248 130.447 148.089 129.827 148.089 129.136C148.089 128.445 148.248 127.829 148.565 127.288C148.892 126.747 149.335 126.327 149.895 126.028C150.455 125.729 151.085 125.58 151.785 125.58C152.41 125.58 152.975 125.706 153.479 125.958C153.983 126.21 154.389 126.574 154.697 127.05V125.636H155.649ZM151.883 131.838C152.415 131.838 152.896 131.726 153.325 131.502C153.754 131.269 154.086 130.947 154.319 130.536C154.562 130.125 154.683 129.659 154.683 129.136C154.683 128.613 154.562 128.151 154.319 127.75C154.086 127.339 153.754 127.022 153.325 126.798C152.905 126.565 152.424 126.448 151.883 126.448C151.351 126.448 150.87 126.56 150.441 126.784C150.021 127.008 149.69 127.325 149.447 127.736C149.214 128.147 149.097 128.613 149.097 129.136C149.097 129.659 149.214 130.125 149.447 130.536C149.69 130.947 150.021 131.269 150.441 131.502C150.87 131.726 151.351 131.838 151.883 131.838ZM164.365 125.636V133H163.413V131.656C163.151 132.104 162.792 132.454 162.335 132.706C161.877 132.949 161.355 133.07 160.767 133.07C159.805 133.07 159.045 132.804 158.485 132.272C157.934 131.731 157.659 130.942 157.659 129.906V125.636H158.653V129.808C158.653 130.583 158.844 131.171 159.227 131.572C159.609 131.973 160.155 132.174 160.865 132.174C161.639 132.174 162.251 131.941 162.699 131.474C163.147 130.998 163.371 130.34 163.371 129.5V125.636H164.365ZM169.025 125.58C169.986 125.58 170.723 125.823 171.237 126.308C171.75 126.784 172.007 127.493 172.007 128.436V133H171.055V131.852C170.831 132.235 170.499 132.533 170.061 132.748C169.631 132.963 169.118 133.07 168.521 133.07C167.699 133.07 167.046 132.874 166.561 132.482C166.075 132.09 165.833 131.572 165.833 130.928C165.833 130.303 166.057 129.799 166.505 129.416C166.962 129.033 167.685 128.842 168.675 128.842H171.013V128.394C171.013 127.759 170.835 127.279 170.481 126.952C170.126 126.616 169.608 126.448 168.927 126.448C168.46 126.448 168.012 126.527 167.583 126.686C167.153 126.835 166.785 127.045 166.477 127.316L166.029 126.574C166.402 126.257 166.85 126.014 167.373 125.846C167.895 125.669 168.446 125.58 169.025 125.58ZM168.675 132.286C169.235 132.286 169.715 132.16 170.117 131.908C170.518 131.647 170.817 131.273 171.013 130.788V129.584H168.703C167.443 129.584 166.812 130.023 166.812 130.9C166.812 131.329 166.976 131.67 167.303 131.922C167.629 132.165 168.087 132.286 168.675 132.286ZM174.006 122.612H175V133H174.006V122.612ZM183.786 122.612V133H182.834V131.544C182.535 132.039 182.139 132.417 181.644 132.678C181.159 132.939 180.608 133.07 179.992 133.07C179.301 133.07 178.676 132.911 178.116 132.594C177.556 132.277 177.117 131.833 176.8 131.264C176.483 130.695 176.324 130.046 176.324 129.318C176.324 128.59 176.483 127.941 176.8 127.372C177.117 126.803 177.556 126.364 178.116 126.056C178.676 125.739 179.301 125.58 179.992 125.58C180.589 125.58 181.126 125.706 181.602 125.958C182.087 126.201 182.484 126.56 182.792 127.036V122.612H183.786ZM180.076 132.188C180.589 132.188 181.051 132.071 181.462 131.838C181.882 131.595 182.209 131.255 182.442 130.816C182.685 130.377 182.806 129.878 182.806 129.318C182.806 128.758 182.685 128.259 182.442 127.82C182.209 127.381 181.882 127.045 181.462 126.812C181.051 126.569 180.589 126.448 180.076 126.448C179.553 126.448 179.082 126.569 178.662 126.812C178.251 127.045 177.925 127.381 177.682 127.82C177.449 128.259 177.332 128.758 177.332 129.318C177.332 129.878 177.449 130.377 177.682 130.816C177.925 131.255 178.251 131.595 178.662 131.838C179.082 132.071 179.553 132.188 180.076 132.188ZM188.43 125.58C189.392 125.58 190.129 125.823 190.642 126.308C191.156 126.784 191.412 127.493 191.412 128.436V133H190.46V131.852C190.236 132.235 189.905 132.533 189.466 132.748C189.037 132.963 188.524 133.07 187.926 133.07C187.105 133.07 186.452 132.874 185.966 132.482C185.481 132.09 185.238 131.572 185.238 130.928C185.238 130.303 185.462 129.799 185.91 129.416C186.368 129.033 187.091 128.842 188.08 128.842H190.418V128.394C190.418 127.759 190.241 127.279 189.886 126.952C189.532 126.616 189.014 126.448 188.332 126.448C187.866 126.448 187.418 126.527 186.988 126.686C186.559 126.835 186.19 127.045 185.882 127.316L185.434 126.574C185.808 126.257 186.256 126.014 186.778 125.846C187.301 125.669 187.852 125.58 188.43 125.58ZM188.08 132.286C188.64 132.286 189.121 132.16 189.522 131.908C189.924 131.647 190.222 131.273 190.418 130.788V129.584H188.108C186.848 129.584 186.218 130.023 186.218 130.9C186.218 131.329 186.382 131.67 186.708 131.922C187.035 132.165 187.492 132.286 188.08 132.286ZM200.16 122.612V133H199.208V131.544C198.909 132.039 198.512 132.417 198.018 132.678C197.532 132.939 196.982 133.07 196.366 133.07C195.675 133.07 195.05 132.911 194.49 132.594C193.93 132.277 193.491 131.833 193.174 131.264C192.856 130.695 192.698 130.046 192.698 129.318C192.698 128.59 192.856 127.941 193.174 127.372C193.491 126.803 193.93 126.364 194.49 126.056C195.05 125.739 195.675 125.58 196.366 125.58C196.963 125.58 197.5 125.706 197.976 125.958C198.461 126.201 198.858 126.56 199.166 127.036V122.612H200.16ZM196.45 132.188C196.963 132.188 197.425 132.071 197.836 131.838C198.256 131.595 198.582 131.255 198.816 130.816C199.058 130.377 199.18 129.878 199.18 129.318C199.18 128.758 199.058 128.259 198.816 127.82C198.582 127.381 198.256 127.045 197.836 126.812C197.425 126.569 196.963 126.448 196.45 126.448C195.927 126.448 195.456 126.569 195.036 126.812C194.625 127.045 194.298 127.381 194.056 127.82C193.822 128.259 193.706 128.758 193.706 129.318C193.706 129.878 193.822 130.377 194.056 130.816C194.298 131.255 194.625 131.595 195.036 131.838C195.456 132.071 195.927 132.188 196.45 132.188ZM208.64 129.626H202.48C202.536 130.391 202.83 131.012 203.362 131.488C203.894 131.955 204.566 132.188 205.378 132.188C205.835 132.188 206.255 132.109 206.638 131.95C207.02 131.782 207.352 131.539 207.632 131.222L208.192 131.866C207.865 132.258 207.454 132.557 206.96 132.762C206.474 132.967 205.938 133.07 205.35 133.07C204.594 133.07 203.922 132.911 203.334 132.594C202.755 132.267 202.302 131.819 201.976 131.25C201.649 130.681 201.486 130.037 201.486 129.318C201.486 128.599 201.64 127.955 201.948 127.386C202.265 126.817 202.694 126.373 203.236 126.056C203.786 125.739 204.402 125.58 205.084 125.58C205.765 125.58 206.376 125.739 206.918 126.056C207.459 126.373 207.884 126.817 208.192 127.386C208.5 127.946 208.654 128.59 208.654 129.318L208.64 129.626ZM205.084 126.434C204.374 126.434 203.777 126.663 203.292 127.12C202.816 127.568 202.545 128.156 202.48 128.884H207.702C207.636 128.156 207.361 127.568 206.876 127.12C206.4 126.663 205.802 126.434 205.084 126.434ZM219.353 129.626H213.193C213.249 130.391 213.543 131.012 214.075 131.488C214.607 131.955 215.279 132.188 216.091 132.188C216.548 132.188 216.968 132.109 217.351 131.95C217.734 131.782 218.065 131.539 218.345 131.222L218.905 131.866C218.578 132.258 218.168 132.557 217.673 132.762C217.188 132.967 216.651 133.07 216.063 133.07C215.307 133.07 214.635 132.911 214.047 132.594C213.468 132.267 213.016 131.819 212.689 131.25C212.362 130.681 212.199 130.037 212.199 129.318C212.199 128.599 212.353 127.955 212.661 127.386C212.978 126.817 213.408 126.373 213.949 126.056C214.5 125.739 215.116 125.58 215.797 125.58C216.478 125.58 217.09 125.739 217.631 126.056C218.172 126.373 218.597 126.817 218.905 127.386C219.213 127.946 219.367 128.59 219.367 129.318L219.353 129.626ZM215.797 126.434C215.088 126.434 214.49 126.663 214.005 127.12C213.529 127.568 213.258 128.156 213.193 128.884H218.415C218.35 128.156 218.074 127.568 217.589 127.12C217.113 126.663 216.516 126.434 215.797 126.434ZM224.442 125.58C225.366 125.58 226.099 125.851 226.64 126.392C227.191 126.924 227.466 127.703 227.466 128.73V133H226.472V128.828C226.472 128.063 226.281 127.479 225.898 127.078C225.516 126.677 224.97 126.476 224.26 126.476C223.467 126.476 222.837 126.714 222.37 127.19C221.913 127.657 221.684 128.305 221.684 129.136V133H220.69V125.636H221.642V126.994C221.913 126.546 222.286 126.201 222.762 125.958C223.248 125.706 223.808 125.58 224.442 125.58ZM233.343 132.552C233.156 132.72 232.923 132.851 232.643 132.944C232.372 133.028 232.088 133.07 231.789 133.07C231.098 133.07 230.566 132.883 230.193 132.51C229.82 132.137 229.633 131.609 229.633 130.928V126.476H228.317V125.636H229.633V124.026H230.627V125.636H232.867V126.476H230.627V130.872C230.627 131.311 230.734 131.647 230.949 131.88C231.173 132.104 231.49 132.216 231.901 132.216C232.106 132.216 232.302 132.183 232.489 132.118C232.685 132.053 232.853 131.959 232.993 131.838L233.343 132.552ZM235.404 127.078C235.638 126.583 235.983 126.21 236.44 125.958C236.907 125.706 237.481 125.58 238.162 125.58V126.546L237.924 126.532C237.15 126.532 236.543 126.77 236.104 127.246C235.666 127.722 235.446 128.389 235.446 129.248V133H234.452V125.636H235.404V127.078ZM245.606 129.626H239.446C239.502 130.391 239.796 131.012 240.328 131.488C240.86 131.955 241.532 132.188 242.344 132.188C242.801 132.188 243.221 132.109 243.604 131.95C243.986 131.782 244.318 131.539 244.598 131.222L245.158 131.866C244.831 132.258 244.42 132.557 243.926 132.762C243.44 132.967 242.904 133.07 242.316 133.07C241.56 133.07 240.888 132.911 240.3 132.594C239.721 132.267 239.268 131.819 238.942 131.25C238.615 130.681 238.452 130.037 238.452 129.318C238.452 128.599 238.606 127.955 238.914 127.386C239.231 126.817 239.66 126.373 240.202 126.056C240.752 125.739 241.368 125.58 242.05 125.58C242.731 125.58 243.342 125.739 243.884 126.056C244.425 126.373 244.85 126.817 245.158 127.386C245.466 127.946 245.62 128.59 245.62 129.318L245.606 129.626ZM242.05 126.434C241.34 126.434 240.743 126.663 240.258 127.12C239.782 127.568 239.511 128.156 239.446 128.884H244.668C244.602 128.156 244.327 127.568 243.842 127.12C243.366 126.663 242.768 126.434 242.05 126.434ZM252.343 123.382C251.914 123.382 251.587 123.499 251.363 123.732C251.148 123.965 251.041 124.311 251.041 124.768V125.636H253.309V126.476H251.069V133H250.075V126.476H248.759V125.636H250.075V124.726C250.075 124.054 250.266 123.522 250.649 123.13C251.041 122.738 251.592 122.542 252.301 122.542C252.581 122.542 252.852 122.584 253.113 122.668C253.374 122.743 253.594 122.855 253.771 123.004L253.435 123.746C253.146 123.503 252.782 123.382 252.343 123.382ZM255.773 125.636H256.767V133H255.773V125.636ZM256.277 124.026C256.072 124.026 255.899 123.956 255.759 123.816C255.619 123.676 255.549 123.508 255.549 123.312C255.549 123.125 255.619 122.962 255.759 122.822C255.899 122.682 256.072 122.612 256.277 122.612C256.482 122.612 256.655 122.682 256.795 122.822C256.935 122.953 257.005 123.111 257.005 123.298C257.005 123.503 256.935 123.676 256.795 123.816C256.655 123.956 256.482 124.026 256.277 124.026ZM258.846 122.612H259.84V133H258.846V122.612ZM265.658 125.58C266.582 125.58 267.314 125.851 267.856 126.392C268.406 126.924 268.682 127.703 268.682 128.73V133H267.688V128.828C267.688 128.063 267.496 127.479 267.114 127.078C266.731 126.677 266.185 126.476 265.476 126.476C264.682 126.476 264.052 126.714 263.586 127.19C263.128 127.657 262.9 128.305 262.9 129.136V133H261.906V122.612H262.9V126.924C263.17 126.495 263.544 126.163 264.02 125.93C264.496 125.697 265.042 125.58 265.658 125.58ZM273.717 133.07C273.008 133.07 272.369 132.911 271.799 132.594C271.23 132.267 270.782 131.819 270.455 131.25C270.129 130.681 269.965 130.037 269.965 129.318C269.965 128.599 270.129 127.955 270.455 127.386C270.782 126.817 271.23 126.373 271.799 126.056C272.369 125.739 273.008 125.58 273.717 125.58C274.427 125.58 275.066 125.739 275.635 126.056C276.205 126.373 276.648 126.817 276.965 127.386C277.292 127.955 277.455 128.599 277.455 129.318C277.455 130.037 277.292 130.681 276.965 131.25C276.648 131.819 276.205 132.267 275.635 132.594C275.066 132.911 274.427 133.07 273.717 133.07ZM273.717 132.188C274.24 132.188 274.707 132.071 275.117 131.838C275.537 131.595 275.864 131.255 276.097 130.816C276.331 130.377 276.447 129.878 276.447 129.318C276.447 128.758 276.331 128.259 276.097 127.82C275.864 127.381 275.537 127.045 275.117 126.812C274.707 126.569 274.24 126.448 273.717 126.448C273.195 126.448 272.723 126.569 272.303 126.812C271.893 127.045 271.566 127.381 271.323 127.82C271.09 128.259 270.973 128.758 270.973 129.318C270.973 129.878 271.09 130.377 271.323 130.816C271.566 131.255 271.893 131.595 272.303 131.838C272.723 132.071 273.195 132.188 273.717 132.188ZM280.759 133.07C280.162 133.07 279.588 132.986 279.037 132.818C278.496 132.641 278.071 132.421 277.763 132.16L278.211 131.376C278.519 131.619 278.906 131.819 279.373 131.978C279.84 132.127 280.325 132.202 280.829 132.202C281.501 132.202 281.996 132.099 282.313 131.894C282.64 131.679 282.803 131.381 282.803 130.998C282.803 130.727 282.714 130.517 282.537 130.368C282.36 130.209 282.136 130.093 281.865 130.018C281.594 129.934 281.235 129.855 280.787 129.78C280.19 129.668 279.709 129.556 279.345 129.444C278.981 129.323 278.668 129.122 278.407 128.842C278.155 128.562 278.029 128.175 278.029 127.68C278.029 127.064 278.286 126.56 278.799 126.168C279.312 125.776 280.026 125.58 280.941 125.58C281.417 125.58 281.893 125.645 282.369 125.776C282.845 125.897 283.237 126.061 283.545 126.266L283.111 127.064C282.504 126.644 281.781 126.434 280.941 126.434C280.306 126.434 279.826 126.546 279.499 126.77C279.182 126.994 279.023 127.288 279.023 127.652C279.023 127.932 279.112 128.156 279.289 128.324C279.476 128.492 279.704 128.618 279.975 128.702C280.246 128.777 280.619 128.856 281.095 128.94C281.683 129.052 282.154 129.164 282.509 129.276C282.864 129.388 283.167 129.579 283.419 129.85C283.671 130.121 283.797 130.494 283.797 130.97C283.797 131.614 283.526 132.127 282.985 132.51C282.453 132.883 281.711 133.07 280.759 133.07Z" fill="black"/>
<path d="M82.8917 127.89C82.9156 127.804 82.9156 127.712 82.8917 127.625L80.8076 120.051L94.0083 127.758L80.8076 135.465L82.8917 127.89Z" fill="white" stroke="#4C8E11" stroke-linecap="round" stroke-linejoin="round"/>
</svg>
