<svg width="140" height="50" viewBox="0 0 140 50" fill="none" xmlns="http://www.w3.org/2000/svg">
<path d="M0 0L50 25.1634L0 50L8.80282 25.1634L0 0Z" fill="#4C8E11"/>
<path d="M14.2824 29.62H9.06737L7.64987 32H3.99237L11.8499 19.75H15.2624L18.2199 32H14.7724L14.2824 29.62ZM13.7574 27.065L12.9349 23.0925L10.5899 27.065H13.7574ZM19.9197 19.75H25.2397C26.4997 19.75 27.5905 19.96 28.5122 20.38C29.4339 20.7883 30.1397 21.3833 30.6297 22.165C31.1314 22.935 31.3822 23.845 31.3822 24.895C31.3822 26.3183 31.0555 27.5667 30.4022 28.64C29.7605 29.7133 28.8622 30.5417 27.7072 31.125C26.5522 31.7083 25.228 32 23.7347 32H17.4697L19.9197 19.75ZM23.8397 29.235C24.6797 29.235 25.403 29.06 26.0097 28.71C26.628 28.3483 27.0947 27.8583 27.4097 27.24C27.7247 26.61 27.8822 25.8983 27.8822 25.105C27.8822 24.2767 27.6255 23.6408 27.1122 23.1975C26.5989 22.7425 25.8464 22.515 24.8547 22.515H22.8247L21.4947 29.235H23.8397ZM36.8627 32.245C35.626 32.245 34.541 32.0233 33.6077 31.58C32.6744 31.125 31.9569 30.4892 31.4552 29.6725C30.9535 28.8558 30.7027 27.9167 30.7027 26.855C30.7027 25.455 31.0235 24.195 31.6652 23.075C32.3185 21.955 33.2285 21.08 34.3952 20.45C35.5619 19.82 36.8919 19.505 38.3852 19.505C39.5169 19.505 40.5202 19.7092 41.3952 20.1175C42.2702 20.5142 42.9235 21.08 43.3552 21.815L40.8527 23.81C40.2577 22.8533 39.3594 22.375 38.1577 22.375C37.376 22.375 36.6877 22.5617 36.0927 22.935C35.4977 23.2967 35.031 23.8042 34.6927 24.4575C34.366 25.0992 34.2027 25.8225 34.2027 26.6275C34.2027 27.4558 34.471 28.1208 35.0077 28.6225C35.5444 29.1242 36.2735 29.375 37.1952 29.375C38.3619 29.375 39.3594 28.9025 40.1877 27.9575L42.2352 29.97C41.5702 30.775 40.7944 31.3583 39.9077 31.72C39.021 32.07 38.006 32.245 36.8627 32.245Z" fill="white"/>
<path d="M68.32 11.824H63.552L62.256 14H58.912L66.096 2.8H69.216L71.92 14H68.768L68.32 11.824ZM67.84 9.488L67.088 5.856L64.944 9.488H67.84ZM78.8341 5.184C79.4741 5.184 80.0715 5.344 80.6261 5.664C81.1915 5.97333 81.6448 6.42667 81.9861 7.024C82.3275 7.62133 82.4981 8.32 82.4981 9.12C82.4981 10.0693 82.2848 10.928 81.8581 11.696C81.4421 12.4533 80.8715 13.0507 80.1461 13.488C79.4315 13.9253 78.6475 14.144 77.7941 14.144C76.5355 14.144 75.6501 13.7493 75.1381 12.96L74.3061 17.104H71.2661L73.6181 5.328H76.4981L76.3221 6.144C77.0155 5.504 77.8528 5.184 78.8341 5.184ZM77.3621 11.696C77.9701 11.696 78.4661 11.472 78.8501 11.024C79.2341 10.576 79.4261 9.99467 79.4261 9.28C79.4261 8.768 79.2768 8.36267 78.9781 8.064C78.6901 7.76533 78.2901 7.616 77.7781 7.616C77.1701 7.616 76.6741 7.84 76.2901 8.288C75.9061 8.736 75.7141 9.32267 75.7141 10.048C75.7141 10.56 75.8581 10.9653 76.1461 11.264C76.4448 11.552 76.8501 11.696 77.3621 11.696ZM86.6311 6.288C87.3565 5.552 88.4018 5.184 89.7671 5.184L89.2391 7.92C88.9725 7.888 88.7431 7.872 88.5511 7.872C87.8685 7.872 87.3191 8.03733 86.9031 8.368C86.4978 8.688 86.2258 9.2 86.0871 9.904L85.2551 14H82.2151L83.9431 5.328H86.8231L86.6311 6.288ZM98.2075 8.992C98.2075 9.408 98.1488 9.88267 98.0315 10.416H91.6635C91.7702 11.3547 92.4262 11.824 93.6315 11.824C94.0155 11.824 94.3888 11.7653 94.7515 11.648C95.1142 11.5307 95.4395 11.3547 95.7275 11.12L96.9915 13.024C95.9782 13.7707 94.7462 14.144 93.2955 14.144C92.3782 14.144 91.5675 13.984 90.8635 13.664C90.1702 13.3333 89.6315 12.8747 89.2475 12.288C88.8742 11.6907 88.6875 10.992 88.6875 10.192C88.6875 9.24267 88.9062 8.38933 89.3435 7.632C89.7915 6.864 90.4102 6.26667 91.1995 5.84C91.9995 5.40267 92.9115 5.184 93.9355 5.184C94.7995 5.184 95.5515 5.344 96.1915 5.664C96.8422 5.97333 97.3382 6.416 97.6795 6.992C98.0315 7.568 98.2075 8.23467 98.2075 8.992ZM93.7915 7.344C93.3008 7.344 92.8902 7.47733 92.5595 7.744C92.2288 8 91.9888 8.35733 91.8395 8.816H95.4075C95.4182 8.35733 95.2742 8 94.9755 7.744C94.6768 7.47733 94.2822 7.344 93.7915 7.344ZM104.955 5.184C105.904 5.184 106.661 5.44 107.227 5.952C107.803 6.45333 108.091 7.17867 108.091 8.128C108.091 8.48 108.053 8.83733 107.979 9.2L107.019 14H103.979L104.875 9.488C104.917 9.30667 104.939 9.11467 104.939 8.912C104.939 8.144 104.539 7.76 103.739 7.76C103.205 7.76 102.768 7.92533 102.427 8.256C102.085 8.576 101.845 9.06133 101.707 9.712L100.843 14H97.8026L99.5306 5.328H102.411L102.235 6.224C102.608 5.872 103.029 5.61067 103.499 5.44C103.968 5.26933 104.453 5.184 104.955 5.184ZM119.852 2.128L117.484 14H114.604L114.78 13.152C114.087 13.8133 113.25 14.144 112.268 14.144C111.628 14.144 111.026 13.9893 110.46 13.68C109.906 13.36 109.458 12.9013 109.116 12.304C108.775 11.7067 108.604 11.0027 108.604 10.192C108.604 9.25333 108.812 8.40533 109.228 7.648C109.655 6.88 110.231 6.27733 110.956 5.84C111.682 5.40267 112.471 5.184 113.324 5.184C114.562 5.184 115.442 5.568 115.964 6.336L116.812 2.128H119.852ZM113.324 11.696C113.932 11.696 114.428 11.472 114.812 11.024C115.196 10.576 115.388 9.99467 115.388 9.28C115.388 8.768 115.244 8.36267 114.956 8.064C114.668 7.76533 114.268 7.616 113.756 7.616C113.148 7.616 112.652 7.84 112.268 8.288C111.884 8.736 111.692 9.32267 111.692 10.048C111.692 10.56 111.836 10.9653 112.124 11.264C112.412 11.552 112.812 11.696 113.324 11.696ZM129.536 5.328L127.808 14H124.928L125.104 13.184C124.411 13.824 123.573 14.144 122.592 14.144C121.952 14.144 121.349 13.9893 120.784 13.68C120.229 13.36 119.781 12.9013 119.44 12.304C119.099 11.7067 118.928 11.0027 118.928 10.192C118.928 9.25333 119.136 8.40533 119.552 7.648C119.979 6.88 120.549 6.27733 121.264 5.84C121.989 5.40267 122.779 5.184 123.632 5.184C124.891 5.184 125.776 5.57867 126.288 6.368L126.496 5.328H129.536ZM123.648 11.696C124.256 11.696 124.752 11.472 125.136 11.024C125.52 10.576 125.712 9.99467 125.712 9.28C125.712 8.768 125.563 8.36267 125.264 8.064C124.976 7.76533 124.576 7.616 124.064 7.616C123.456 7.616 122.96 7.84 122.576 8.288C122.192 8.736 122 9.32267 122 10.048C122 10.56 122.144 10.9653 122.432 11.264C122.731 11.552 123.136 11.696 123.648 11.696ZM62.496 18.8H67.36C68.512 18.8 69.5093 18.992 70.352 19.376C71.1947 19.7493 71.84 20.2933 72.288 21.008C72.7467 21.712 72.976 22.544 72.976 23.504C72.976 24.8053 72.6773 25.9467 72.08 26.928C71.4933 27.9093 70.672 28.6667 69.616 29.2C68.56 29.7333 67.3493 30 65.984 30H60.256L62.496 18.8ZM66.08 27.472C66.848 27.472 67.5093 27.312 68.064 26.992C68.6293 26.6613 69.056 26.2133 69.344 25.648C69.632 25.072 69.776 24.4213 69.776 23.696C69.776 22.9387 69.5413 22.3573 69.072 21.952C68.6027 21.536 67.9147 21.328 67.008 21.328H65.152L63.936 27.472H66.08ZM74.2587 21.328H77.2828L75.5547 30H72.5307L74.2587 21.328ZM76.1948 20.368C75.6721 20.368 75.2507 20.224 74.9307 19.936C74.6107 19.648 74.4507 19.2907 74.4507 18.864C74.4507 18.3627 74.6267 17.952 74.9787 17.632C75.3414 17.3013 75.8161 17.136 76.4028 17.136C76.9361 17.136 77.3628 17.2747 77.6828 17.552C78.0028 17.8187 78.1628 18.1653 78.1628 18.592C78.1628 19.1147 77.9814 19.5413 77.6188 19.872C77.2561 20.2027 76.7814 20.368 76.1948 20.368ZM81.1311 22.288C81.8565 21.552 82.9018 21.184 84.2671 21.184L83.7391 23.92C83.4725 23.888 83.2431 23.872 83.0511 23.872C82.3685 23.872 81.8191 24.0373 81.4031 24.368C80.9978 24.688 80.7258 25.2 80.5871 25.904L79.7551 30H76.7151L78.4431 21.328H81.3231L81.1311 22.288ZM92.7075 24.992C92.7075 25.408 92.6488 25.8827 92.5315 26.416H86.1635C86.2702 27.3547 86.9262 27.824 88.1315 27.824C88.5155 27.824 88.8888 27.7653 89.2515 27.648C89.6142 27.5307 89.9395 27.3547 90.2275 27.12L91.4915 29.024C90.4782 29.7707 89.2462 30.144 87.7955 30.144C86.8782 30.144 86.0675 29.984 85.3635 29.664C84.6702 29.3333 84.1315 28.8747 83.7475 28.288C83.3742 27.6907 83.1875 26.992 83.1875 26.192C83.1875 25.2427 83.4062 24.3893 83.8435 23.632C84.2915 22.864 84.9102 22.2667 85.6995 21.84C86.4995 21.4027 87.4115 21.184 88.4355 21.184C89.2995 21.184 90.0515 21.344 90.6915 21.664C91.3422 21.9733 91.8382 22.416 92.1795 22.992C92.5315 23.568 92.7075 24.2347 92.7075 24.992ZM88.2915 23.344C87.8008 23.344 87.3902 23.4773 87.0595 23.744C86.7288 24 86.4888 24.3573 86.3395 24.816H89.9075C89.9182 24.3573 89.7742 24 89.4755 23.744C89.1768 23.4773 88.7822 23.344 88.2915 23.344ZM94.0306 21.328H97.0546L95.3266 30H92.3026L94.0306 21.328ZM95.9666 20.368C95.444 20.368 95.0226 20.224 94.7026 19.936C94.3826 19.648 94.2226 19.2907 94.2226 18.864C94.2226 18.3627 94.3986 17.952 94.7506 17.632C95.1133 17.3013 95.588 17.136 96.1746 17.136C96.708 17.136 97.1346 17.2747 97.4546 17.552C97.7746 17.8187 97.9346 18.1653 97.9346 18.592C97.9346 19.1147 97.7533 19.5413 97.3906 19.872C97.028 20.2027 96.5533 20.368 95.9666 20.368ZM100.519 26.768C100.498 26.9173 100.487 27.0133 100.487 27.056C100.487 27.5467 100.754 27.792 101.287 27.792C101.575 27.792 101.879 27.7067 102.199 27.536L102.583 29.632C101.986 29.9733 101.234 30.144 100.327 30.144C99.431 30.144 98.7163 29.92 98.183 29.472C97.6603 29.024 97.399 28.4 97.399 27.6C97.399 27.2907 97.4257 27.0187 97.479 26.784L98.055 23.92H96.775L97.239 21.648H98.503L98.951 19.392H101.991L101.543 21.648H103.511L103.063 23.92H101.095L100.519 26.768ZM107.409 30.144C106.492 30.144 105.692 29.984 105.009 29.664C104.327 29.3333 103.799 28.8693 103.425 28.272C103.052 27.6747 102.865 26.9813 102.865 26.192C102.865 25.2427 103.095 24.3893 103.553 23.632C104.012 22.8747 104.647 22.2773 105.457 21.84C106.268 21.4027 107.18 21.184 108.193 21.184C109.111 21.184 109.911 21.3493 110.593 21.68C111.276 22 111.804 22.4587 112.177 23.056C112.551 23.6427 112.737 24.3307 112.737 25.12C112.737 26.0693 112.508 26.928 112.049 27.696C111.591 28.4533 110.956 29.0507 110.145 29.488C109.345 29.9253 108.433 30.144 107.409 30.144ZM107.585 27.696C108.193 27.696 108.689 27.472 109.073 27.024C109.457 26.576 109.649 25.9947 109.649 25.28C109.649 24.768 109.505 24.3627 109.217 24.064C108.929 23.7653 108.529 23.616 108.017 23.616C107.409 23.616 106.913 23.84 106.529 24.288C106.145 24.736 105.953 25.3227 105.953 26.048C105.953 26.56 106.097 26.9653 106.385 27.264C106.673 27.552 107.073 27.696 107.585 27.696ZM66.368 46.224C65.2373 46.224 64.2453 46.0213 63.392 45.616C62.5387 45.2 61.8827 44.6187 61.424 43.872C60.9653 43.1253 60.736 42.2667 60.736 41.296C60.736 40.016 61.0293 38.864 61.616 37.84C62.2133 36.816 63.0453 36.016 64.112 35.44C65.1787 34.864 66.3947 34.576 67.76 34.576C68.7947 34.576 69.712 34.7627 70.512 35.136C71.312 35.4987 71.9093 36.016 72.304 36.688L70.016 38.512C69.472 37.6373 68.6507 37.2 67.552 37.2C66.8373 37.2 66.208 37.3707 65.664 37.712C65.12 38.0427 64.6933 38.5067 64.384 39.104C64.0853 39.6907 63.936 40.352 63.936 41.088C63.936 41.8453 64.1813 42.4533 64.672 42.912C65.1627 43.3707 65.8293 43.6 66.672 43.6C67.7387 43.6 68.6507 43.168 69.408 42.304L71.28 44.144C70.672 44.88 69.9627 45.4133 69.152 45.744C68.3413 46.064 67.4133 46.224 66.368 46.224ZM75.6749 46.144C74.7575 46.144 73.9575 45.984 73.2749 45.664C72.5922 45.3333 72.0642 44.8693 71.6909 44.272C71.3175 43.6747 71.1309 42.9813 71.1309 42.192C71.1309 41.2427 71.3602 40.3893 71.8189 39.632C72.2775 38.8747 72.9122 38.2773 73.7229 37.84C74.5335 37.4027 75.4455 37.184 76.4589 37.184C77.3762 37.184 78.1762 37.3493 78.8589 37.68C79.5415 38 80.0695 38.4587 80.4429 39.056C80.8162 39.6427 81.0029 40.3307 81.0029 41.12C81.0029 42.0693 80.7735 42.928 80.3149 43.696C79.8562 44.4533 79.2215 45.0507 78.4109 45.488C77.6109 45.9253 76.6989 46.144 75.6749 46.144ZM75.8509 43.696C76.4589 43.696 76.9549 43.472 77.3389 43.024C77.7229 42.576 77.9149 41.9947 77.9149 41.28C77.9149 40.768 77.7709 40.3627 77.4829 40.064C77.1949 39.7653 76.7949 39.616 76.2829 39.616C75.6749 39.616 75.1789 39.84 74.7949 40.288C74.4109 40.736 74.2189 41.3227 74.2189 42.048C74.2189 42.56 74.3629 42.9653 74.6509 43.264C74.9389 43.552 75.3389 43.696 75.8509 43.696ZM93.5155 37.184C94.4328 37.184 95.1688 37.44 95.7235 37.952C96.2782 38.464 96.5555 39.1893 96.5555 40.128C96.5555 40.48 96.5182 40.8373 96.4435 41.2L95.4995 46H92.4595L93.3555 41.52C93.3982 41.3173 93.4195 41.1147 93.4195 40.912C93.4195 40.528 93.3235 40.24 93.1315 40.048C92.9502 39.856 92.6835 39.76 92.3315 39.76C91.3608 39.76 90.7475 40.384 90.4915 41.632L89.6115 46H86.5715L87.4835 41.52C87.5262 41.3387 87.5475 41.1413 87.5475 40.928C87.5475 40.544 87.4515 40.256 87.2595 40.064C87.0782 39.8613 86.8115 39.76 86.4595 39.76C85.4782 39.76 84.8595 40.3947 84.6035 41.664L83.7395 46H80.6995L82.4275 37.328H85.3075L85.1315 38.208C85.8462 37.5253 86.7102 37.184 87.7235 37.184C88.2995 37.184 88.8168 37.3067 89.2755 37.552C89.7342 37.7867 90.0862 38.1333 90.3315 38.592C90.7368 38.1333 91.2062 37.7867 91.7395 37.552C92.2835 37.3067 92.8755 37.184 93.5155 37.184ZM103.562 37.184C104.202 37.184 104.8 37.344 105.354 37.664C105.92 37.9733 106.373 38.4267 106.714 39.024C107.056 39.6213 107.226 40.32 107.226 41.12C107.226 42.0693 107.013 42.928 106.586 43.696C106.17 44.4533 105.6 45.0507 104.874 45.488C104.16 45.9253 103.376 46.144 102.522 46.144C101.264 46.144 100.378 45.7493 99.8662 44.96L99.0342 49.104H95.9942L98.3462 37.328H101.226L101.05 38.144C101.744 37.504 102.581 37.184 103.562 37.184ZM102.09 43.696C102.698 43.696 103.194 43.472 103.578 43.024C103.962 42.576 104.154 41.9947 104.154 41.28C104.154 40.768 104.005 40.3627 103.706 40.064C103.418 39.7653 103.018 39.616 102.506 39.616C101.898 39.616 101.402 39.84 101.018 40.288C100.634 40.736 100.442 41.3227 100.442 42.048C100.442 42.56 100.586 42.9653 100.874 43.264C101.173 43.552 101.578 43.696 102.09 43.696ZM109.311 34.128H112.351L109.983 46H106.943L109.311 34.128ZM120.967 40.992C120.967 41.408 120.908 41.8827 120.791 42.416H114.423C114.53 43.3547 115.186 43.824 116.391 43.824C116.775 43.824 117.148 43.7653 117.511 43.648C117.874 43.5307 118.199 43.3547 118.487 43.12L119.751 45.024C118.738 45.7707 117.506 46.144 116.055 46.144C115.138 46.144 114.327 45.984 113.623 45.664C112.93 45.3333 112.391 44.8747 112.007 44.288C111.634 43.6907 111.447 42.992 111.447 42.192C111.447 41.2427 111.666 40.3893 112.103 39.632C112.551 38.864 113.17 38.2667 113.959 37.84C114.759 37.4027 115.671 37.184 116.695 37.184C117.559 37.184 118.311 37.344 118.951 37.664C119.602 37.9733 120.098 38.416 120.439 38.992C120.791 39.568 120.967 40.2347 120.967 40.992ZM116.551 39.344C116.06 39.344 115.65 39.4773 115.319 39.744C114.988 40 114.748 40.3573 114.599 40.816H118.167C118.178 40.3573 118.034 40 117.735 39.744C117.436 39.4773 117.042 39.344 116.551 39.344ZM124.594 42.768C124.573 42.9173 124.562 43.0133 124.562 43.056C124.562 43.5467 124.829 43.792 125.362 43.792C125.65 43.792 125.954 43.7067 126.274 43.536L126.658 45.632C126.061 45.9733 125.309 46.144 124.402 46.144C123.506 46.144 122.791 45.92 122.258 45.472C121.735 45.024 121.474 44.4 121.474 43.6C121.474 43.2907 121.501 43.0187 121.554 42.784L122.13 39.92H120.85L121.314 37.648H122.578L123.026 35.392H126.066L125.618 37.648H127.586L127.138 39.92H125.17L124.594 42.768ZM131.484 46.144C130.567 46.144 129.767 45.984 129.084 45.664C128.402 45.3333 127.874 44.8693 127.5 44.272C127.127 43.6747 126.94 42.9813 126.94 42.192C126.94 41.2427 127.17 40.3893 127.628 39.632C128.087 38.8747 128.722 38.2773 129.532 37.84C130.343 37.4027 131.255 37.184 132.268 37.184C133.186 37.184 133.986 37.3493 134.668 37.68C135.351 38 135.879 38.4587 136.252 39.056C136.626 39.6427 136.812 40.3307 136.812 41.12C136.812 42.0693 136.583 42.928 136.124 43.696C135.666 44.4533 135.031 45.0507 134.22 45.488C133.42 45.9253 132.508 46.144 131.484 46.144ZM131.66 43.696C132.268 43.696 132.764 43.472 133.148 43.024C133.532 42.576 133.724 41.9947 133.724 41.28C133.724 40.768 133.58 40.3627 133.292 40.064C133.004 39.7653 132.604 39.616 132.092 39.616C131.484 39.616 130.988 39.84 130.604 40.288C130.22 40.736 130.028 41.3227 130.028 42.048C130.028 42.56 130.172 42.9653 130.46 43.264C130.748 43.552 131.148 43.696 131.66 43.696Z" fill="black"/>
</svg>
