<svg width="65" height="75" viewBox="0 0 65 75" fill="none" xmlns="http://www.w3.org/2000/svg">
<path d="M64.2293 37.5L0 0L10.3178 37.5L0 75L64.2293 37.5Z" fill="#4C8E11"/>
<path d="M19.0988 42.9976H12.5966L11.7973 45.9093H8.00037L12.1168 30.9224H17.1574L24.7288 45.9093H20.5111L19.0988 42.9976ZM17.3828 39.3365L14.9442 34.3052L13.5557 39.3365H17.3828Z" fill="white"/>
<path d="M27.1653 30.9224H33.6738C35.2153 30.9224 36.5499 31.1794 37.6775 31.6932C38.805 32.1928 39.6686 32.9207 40.268 33.877C40.8818 34.819 41.1887 35.9323 41.1887 37.2169C41.1887 38.9582 40.789 40.4855 39.9897 41.7986C39.2047 43.1117 38.1056 44.1251 36.6926 44.8388C35.2796 45.5525 33.6596 45.9093 31.8326 45.9093H24.1679L27.1653 30.9224ZM31.961 42.5265C32.9887 42.5265 33.8736 42.3124 34.6159 41.8842C35.3723 41.4418 35.9433 40.8423 36.3286 40.0858C36.714 39.3151 36.9067 38.4444 36.9067 37.4738C36.9067 36.4604 36.5927 35.6826 35.9647 35.1402C35.3366 34.5835 34.416 34.3052 33.2028 34.3052H30.7193L29.0921 42.5265H31.961Z" fill="white"/>
<path d="M48.2504 46.209C46.7375 46.209 45.4101 45.9378 44.2682 45.3954C43.1263 44.8388 42.2485 44.0609 41.6348 43.0618C41.0211 42.0627 40.7142 40.9137 40.7142 39.6148C40.7142 37.902 41.1067 36.3605 41.8917 34.9903C42.691 33.6201 43.8043 32.5496 45.2316 31.7788C46.659 31.0081 48.2861 30.6227 50.1131 30.6227C51.4976 30.6227 52.6981 30.8959 53.7686 31.3955C54.882 32.0452 56.5066 32.9894 56.5066 32.9894L53.7955 35.1402C52.8123 34.3052 51.3049 34.1339 49.8347 34.1339C48.8784 34.1339 48.0363 34.3623 47.3084 34.819C46.5805 35.2615 46.0095 35.8824 45.5956 36.6817C45.196 37.4667 44.9961 38.3516 44.9961 39.3365C44.9961 40.3499 45.3244 41.1635 45.981 41.7772C46.6375 42.3909 47.5296 42.6978 48.6572 42.6978C50.0845 42.6978 51.3049 42.1198 52.3183 40.9636L54.6541 43.0912C52.8101 44.1717 52.6484 44.2688 51.4091 44.9884C51.1812 45.1042 49.6492 46.209 48.2504 46.209Z" fill="white"/>
</svg>
