<svg width="50" height="50" viewBox="0 0 50 50" fill="none" xmlns="http://www.w3.org/2000/svg">
<circle cx="25" cy="25" r="25" fill="#4C8E11"/>
<path d="M25.039 36.36C22.899 36.36 20.959 35.9 19.219 34.98C17.499 34.04 16.139 32.75 15.139 31.11C14.159 29.45 13.669 27.58 13.669 25.5C13.669 23.42 14.159 21.56 15.139 19.92C16.139 18.26 17.499 16.97 19.219 16.05C20.959 15.11 22.909 14.64 25.069 14.64C26.889 14.64 28.529 14.96 29.989 15.6C31.469 16.24 32.709 17.16 33.709 18.36L30.589 21.24C29.169 19.6 27.409 18.78 25.309 18.78C24.009 18.78 22.849 19.07 21.829 19.65C20.809 20.21 20.009 21 19.429 22.02C18.869 23.04 18.589 24.2 18.589 25.5C18.589 26.8 18.869 27.96 19.429 28.98C20.009 30 20.809 30.8 21.829 31.38C22.849 31.94 24.009 32.22 25.309 32.22C27.409 32.22 29.169 31.39 30.589 29.73L33.709 32.61C32.709 33.83 31.469 34.76 29.989 35.4C28.509 36.04 26.859 36.36 25.039 36.36Z" fill="white"/>
</svg>
